<?xml version="1.0" encoding="utf-8"?>
<!-- Generator: Adobe Illustrator 23.1.1, SVG Export Plug-In . SVG Version: 6.00 Build 0)  -->
<svg version="1.1" id="Layer_1" xmlns="http://www.w3.org/2000/svg" xmlns:xlink="http://www.w3.org/1999/xlink" x="0px" y="0px"
	 viewBox="0 0 129 104" style="enable-background:new 0 0 129 104;" xml:space="preserve">
<style type="text/css">
	.st0{fill:#F1F1EE;}
	.st1{fill:#546676;}
	.st2{fill:#626262;}
	.st3{fill:#FFFFFF;}
</style>
<title>Group 33</title>
<desc>Created with Sketch.</desc>
<path class="st0" d="M41.4,93.1c0-0.2-3.6-2.2-3.7-2.2c-1.1-0.2-3,2.7-4.1,2.5c-2.6-0.5,1.7-1.1-0.7-2.1c-2.4-1,5.5-7.7,3.7-9.2
	c-0.8-0.7-8.7-8.9-9.2-9.7c-0.5-0.7-4.1-5.1-4.2-5.9c-1.8-14.1-17.6-7.1-17.6-7.1C7.2,60,17.8,71.7,19.6,72.2
	c1.8,0.5,7.6,10.7,9.5,11c1.7,0.3,6,4,7.7,4.2c1.2,0.2,6.6,1,7.9,1.1c3.5,0.3,5.3,0.6,8.9,0.6c4.6,0-1.1-1.8,3.5-2.2
	c2.4-0.2,0,0.1,2.4-0.2c2.9-0.4,3.7-0.2,6.6-0.8c4.3-0.8,7.6,0.8,11.7-0.5c5.6-1.7,10.7-3.8,15.6-6.3c3.4-1.8,6.2-3.8,8.8-6.1
	c0.3-0.3,0.6-0.3,1-0.3c2.8,0,5.4-0.4,7.6-1.6c1.5-0.8,2.5-1.9,3.3-3c1.4-1.9,2.6-3.8,3.8-5.7c0.2-0.3,0.2-0.7,0.6-1
	c0.2,0.8-0.1,1.5-0.3,2.2c-0.1,0.7-0.4,1.5-0.6,2.2c-0.3,1-0.8,2-1.1,3c-0.5,1.4-1.3,2.6-2,3.9c-0.8,1.5-1.9,2.9-3,4.3
	c-1.4,1.7-2.9,3.2-4.6,4.7c-1.7,1.6-3.7,3-5.8,4.3c-4,2.4-8.5,4.3-13.2,6c-2.9,1.1-6,2-9.1,2.8c-1.8,0.5-3.6,0.9-5.4,1.2
	c-1.8,0.3-3.6,0.7-5.4,1c-1.8,0.3-3.6,0.6-5.5,0.8c-0.2,0-0.4,0-0.4,0.2C50,98.2,53.3,93.1,41.4,93.1z"/>
<path class="st0" d="M3.7,70.4c-0.2-0.4-1.4-3.9-1.5-4c0-0.9-1.7-2.4-0.3-3.6c0.2-2.1,5-4.6,3.8-6.8c-1.3-2.3,13.3,9.1,12.9,6.8
	c-0.2-1,2.7-8.6,2.8-9.6c0.1-0.8,11.9-2.3,12.3-3.1c7.3-12.3,3.5,17.6,3.6,17.5c0.9,1.5-8.1,3.6-7.1,5.1c1.1,1.5-12-9.2-10.8-7.8
	c1.1,1.3-3.4,0.3-2.2,1.5c0.9,0.9-7.5-0.5-6.6,0.3c2.5,2.4,3.9,2.5,6.6,4.6c3.6,2.8-0.2,0.3,3.6,2.8c2,1.3-1.1,0.9,0.9,2
	c2.5,1.5,3,2.1,5.6,3.4c3.9,1.9,5.5,5.2,9.4,6.7c5.4,2,10.7,3.5,16,4.4c3.7,0.6,7.2,0.7,10.6,0.4c0.4,0,0.6,0.2,1,0.4
	c2.2,1.7,4.4,2.9,6.9,3.3c1.7,0.3,3.1,0,4.5-0.4c2.2-0.6,4.4-1.4,6.5-2.3c0.3-0.1,0.6-0.4,1-0.4c-0.3,0.7-1,1.1-1.6,1.6
	c-0.6,0.5-1.2,0.9-1.8,1.4c-0.8,0.6-1.8,1.1-2.7,1.7c-1.2,0.8-2.6,1.3-4,1.9c-1.6,0.7-3.3,1.2-5,1.6c-2.1,0.5-4.3,0.8-6.5,1
	c-2.3,0.2-4.7,0.1-7.2-0.1c-4.6-0.5-9.3-1.7-14-3.2c-2.9-0.9-5.9-2-8.8-3.3c-1.7-0.7-3.3-1.5-5-2.3c-1.6-0.8-3.2-1.6-4.8-2.5
	c-1.6-0.9-3.2-1.7-4.7-2.7c-0.1-0.1-0.3-0.2-0.4-0.1C7.3,79.6,12.9,77.6,3.7,70.4z"/>
<g>
	<path class="st1" d="M55.8,48.5c-0.2-0.2-0.4-0.3-0.6-0.5c-0.1,0.1-0.1,0-0.2,0c-0.2-0.1-0.4-0.2-0.7-0.2c-0.5,0.1-0.8,0.4-1.1,0.9
		c-0.4,0.7-0.8,1.3-1.2,1.9c-0.4,0.5-0.8,0.9-1.4,1.1c-0.7,0.3-1.5,0.4-2.3,0.5c-0.1,0-0.2,0-0.2-0.1c-0.1-0.3-0.2-0.7-0.3-1
		c-0.3-0.9-0.6-1.8-1.1-2.7c-0.3-0.7-0.7-1.4-1.1-2c-0.3-0.5-0.7-1-1-1.5c-0.3-0.4-0.6-0.7-0.9-1c-0.5-0.5-1-1-1.6-1.5
		c-0.8-0.7-1.7-1.4-2.6-1.9c-0.3-0.2-0.5-0.3-0.8-0.5c-0.4-0.2-0.8-0.4-1.3-0.6c-0.3-0.2-0.7-0.3-1-0.4c-0.4-0.2-0.9-0.3-1.3-0.5
		c-0.2,0-0.3-0.1-0.5-0.1c-0.9-0.3-1.8-0.5-2.8-0.6c-0.6-0.1-1.1-0.2-1.7,0c-0.9,0.2-1.5,0.7-2,1.4c-0.1,0.1-0.1,0.2-0.3,0.2
		c-1.3,0-2.6,0.1-3.9,0.5c-1.8,0.5-3.6,1.2-5.2,2.1c-1.2,0.7-2.4,1.4-3.5,2.3c-0.7,0.6-1.5,1.2-2.2,1.8c-0.6,0.5-1.1,1-1.6,1.6
		c-1,1-1.9,2.1-2.8,3.3c-0.7,0.9-1.3,1.8-1.8,2.7c-0.2,0.3-0.4,0.7-0.6,1C6,55,5.8,55.5,5.6,56c-0.2,0.6-0.4,1.1-0.6,1.7
		c-0.2,0.6-0.2,1.2-0.3,1.8c0,0.1,0,0.2,0,0.3c0,1.1,0.1,2.2,0.6,3.2c0.5,0.9,1,1.8,1.6,2.6c0.6,0.8,1.2,1.5,1.9,2.2
		c0.6,0.6,1.2,1.2,1.9,1.7c1.3,1.1,2.7,2,4.2,2.9c0.7,0.4,1.5,0.8,2.2,1.2c0.7,0.4,1.5,0.7,2.2,1c0.6,0.3,1.3,0.5,1.9,0.7
		c1.1,0.4,2.1,0.6,3.2,0.9c1.3,0.3,2.7,0.4,4,0.4c1.4,0,2.8-0.2,4.1-0.5c0.1,0,0.2,0,0.3,0.1c0.5,0.4,1,0.7,1.6,0.9
		c0.5,0.2,1.1,0.2,1.6,0c0.6-0.2,1.2-0.4,1.7-0.7c0.6-0.3,1.3-0.6,1.9-1c0.5-0.3,1-0.7,1.5-1.1c0.3-0.2,0.6-0.4,0.8-0.7
		c0.3-0.3,0.6-0.6,0.9-0.9c0.6-0.6,1.1-1.2,1.6-1.9c0.5-0.6,0.9-1.3,1.3-2c0.3-0.5,0.5-1,0.8-1.5c0.2-0.3,0.3-0.7,0.5-1.1
		c0.1-0.3,0.3-0.6,0.4-0.9c0.2-0.8,0.5-1.5,0.7-2.3c0.2-0.8,0.4-1.7,0.5-2.6c0.1-0.7,0.2-1.5,0.1-2.2c0-0.2,0.1-0.2,0.2-0.2
		c0.1,0,0.3,0,0.4,0c0.9,0,1.7-0.1,2.6-0.4c1.2-0.3,2.4-0.7,3.5-1.4c0.2-0.1,0.5-0.2,0.7-0.5c0.6-0.8,1.3-1.7,1.9-2.5
		c0.1-0.1,0.1-0.2,0.1-0.3c0-0.6-0.1-1.2-0.3-1.7c-0.2-0.5-0.5-1-0.9-1.5c-0.1,0-0.1-0.1-0.1-0.2c0,0,0,0-0.1-0.1
		c-0.1,0-0.1-0.1-0.1-0.2c0,0-0.1-0.1-0.1-0.1c-0.1,0-0.2-0.1-0.2-0.3c0,0,0,0-0.1-0.1c-0.1-0.1-0.3-0.2-0.4-0.3
		C55.8,48.6,55.7,48.6,55.8,48.5z M55.5,50.8c0.2,0.1,0.3,0.4,0.4,0.5c0.2,0.4,0.4,0.8,0.5,1.2c0.1,0.3,0,0.7-0.2,1
		c-0.4,0.4-0.8,0.7-1.2,1c-0.7,0.5-1.5,0.8-2.4,1.1c-0.5,0.2-1,0.3-1.5,0.4c-0.6,0.1-1.3,0.2-1.9,0.2c-0.4,0-0.4,0-0.5-0.4
		c0-0.4-0.1-0.8-0.1-1.1c-0.1-0.1,0-0.3-0.1-0.4c0-0.1,0-0.1,0.1-0.2c0.3,0,0.6-0.1,1-0.2c0.8-0.1,1.6-0.3,2.3-0.7
		c0.5-0.3,0.9-0.7,1.3-1.1c0.4-0.5,0.8-0.9,1-1.5c0.1-0.2,0.2-0.4,0.4-0.6c0.1-0.1,0.1-0.1,0.2,0c0.1,0.1,0.3,0.2,0.4,0.4
		C55.2,50.5,55.4,50.6,55.5,50.8z M35,48.6c-0.1-0.2-0.1-0.4-0.2-0.7c-0.3-1.1-0.6-2.1-1-3.1c-0.2-0.6-0.5-1.3-0.8-1.9
		c-0.3-0.6-0.7-1.2-1.1-1.8c-0.5-0.6-1-1.1-1.7-1.4c0,0-0.1,0-0.1-0.1c0-0.1,0.1-0.1,0.1-0.1c0.2-0.1,0.5-0.3,0.8-0.2
		c0.5,0,1,0.1,1.5,0.2c0.5,0.1,1.1,0.3,1.6,0.4c0.3,0.1,0.6,0.2,0.9,0.3c0.4,0.1,0.8,0.3,1.2,0.5c0.4,0.2,0.8,0.4,1.1,0.5
		c0.3,0.1,0.6,0.3,0.9,0.5c0.4,0.2,0.7,0.4,1,0.6c0.7,0.5,1.4,1,2,1.6c0.2,0.2,0.5,0.5,0.7,0.7c0.3,0.3,0.5,0.5,0.8,0.8
		c0.2,0.2,0.4,0.5,0.6,0.8c0.2,0.3,0.4,0.6,0.6,0.9c0.4,0.5,0.7,1,0.9,1.6c0.4,0.7,0.7,1.5,1,2.3c0.3,0.9,0.6,1.8,0.7,2.7
		c0,0.2,0.2,0.4,0.1,0.7c0,0,0,0.1,0,0.1c0.1,0.7,0.2,1.3,0.2,2C47,57.3,47,58,47,58.7c0,0.6-0.1,1.3-0.2,1.9
		c-0.1,0.5-0.2,1.1-0.3,1.6c-0.1,0.5-0.3,1-0.4,1.5c-0.1,0.3-0.2,0.7-0.4,1c-0.1,0.3-0.3,0.6-0.4,0.9c-0.1,0.4-0.4,0.8-0.5,1.1
		c-0.2,0.4-0.4,0.7-0.6,1.1c-0.3,0.4-0.5,0.9-0.8,1.3c-0.4,0.6-0.9,1.1-1.4,1.7c-0.4,0.5-0.9,0.9-1.3,1.3c-0.3,0.3-0.7,0.6-1.1,0.9
		c-0.5,0.4-1.1,0.8-1.6,1.1c-0.7,0.4-1.4,0.7-2.1,1c-0.3,0.1-0.6,0.2-0.9,0.1c-0.1,0-0.2,0-0.2-0.1c0-0.1,0.1-0.1,0.1-0.2
		c0.3-0.2,0.5-0.4,0.6-0.6c0.4-0.4,0.6-0.9,0.8-1.4c0.3-0.8,0.5-1.6,0.5-2.5c0.1-0.9,0.1-1.8,0.1-2.8c0-1.1,0.1-2.3,0.1-3.4
		c0-0.8-0.1-1.6-0.1-2.4c0-1-0.1-1.9-0.2-2.9c-0.1-0.9-0.2-1.8-0.3-2.7c-0.1-1-0.3-2-0.5-3c-0.1-0.7-0.2-1.3-0.4-2
		c-0.2-0.6-0.3-1.3-0.4-1.9C35.2,49.2,35,48.9,35,48.6z M7.3,56.5c0,0,0-0.1,0-0.1c0.3-0.5,0.5-1.1,0.8-1.6c0.3-0.5,0.6-1,0.9-1.4
		c0.4-0.7,0.9-1.3,1.4-2c0.2-0.2,0.4-0.4,0.5-0.6c0.4-0.5,0.8-1,1.3-1.5c0.5-0.5,1-1,1.5-1.5c0.3-0.3,0.7-0.6,1-0.9
		c0.6-0.5,1.2-1,1.8-1.4c0.5-0.4,1-0.7,1.5-1c0.9-0.6,1.8-1.1,2.8-1.5c1.2-0.6,2.5-1.1,3.8-1.4c1.2-0.3,2.4-0.4,3.6-0.4
		c0.8,0,1.4,0.4,2,1c0.4,0.4,0.7,0.9,1,1.3c0.4,0.8,0.8,1.6,1.1,2.4c0.2,0.6,0.4,1.3,0.6,1.9c0.1,0.4,0.2,0.7,0.3,1.1
		c0.1,0.4,0.3,0.9,0.4,1.3c0.3,1.5,0.7,3,0.9,4.5c0.2,1.2,0.4,2.4,0.5,3.7c0.1,1.3,0.3,2.7,0.3,4c0.1,1.7,0.1,3.4,0,5.2
		c0,1.3-0.1,2.6-0.3,3.9c-0.1,0.6-0.3,1.1-0.6,1.6c-0.3,0.5-0.8,0.9-1.3,1.1c-1.1,0.4-2.2,0.5-3.3,0.7c-1,0.1-2,0.1-3.1,0
		c-1.3-0.1-2.5-0.4-3.7-0.7c-0.7-0.2-1.4-0.4-2.1-0.7c-0.7-0.2-1.3-0.5-2-0.8c-0.6-0.3-1.2-0.6-1.8-0.9c-0.7-0.4-1.4-0.7-2-1.1
		c-0.9-0.6-1.7-1.1-2.5-1.7c-0.4-0.3-0.9-0.6-1.3-1c-0.5-0.5-1.1-1-1.6-1.5c-0.4-0.4-0.8-0.8-1.1-1.3c-0.5-0.7-1-1.4-1.4-2.2
		c-0.5-0.9-0.7-1.8-0.6-2.8c0-0.8,0.2-1.6,0.4-2.3C7,57.1,7.1,56.8,7.3,56.5z"/>
	<path class="st2" d="M56.3,49C56.3,49,56.3,48.9,56.3,49c-0.1-0.2-0.3-0.3-0.5-0.5c0,0.1,0.1,0.1,0.1,0.2
		C56,48.8,56.1,48.9,56.3,49z"/>
	<path class="st3" d="M7.3,56.5c-0.2,0.3-0.3,0.6-0.4,0.9c-0.2,0.7-0.4,1.5-0.4,2.3c-0.1,1,0.1,1.9,0.6,2.8c0.4,0.8,0.9,1.5,1.4,2.2
		c0.3,0.5,0.7,0.9,1.1,1.3c0.5,0.6,1,1,1.6,1.5c0.4,0.4,0.9,0.7,1.3,1c0.8,0.6,1.7,1.2,2.5,1.7c0.6,0.4,1.3,0.8,2,1.1
		c0.6,0.3,1.2,0.6,1.8,0.9c0.7,0.3,1.3,0.6,2,0.8c0.7,0.2,1.4,0.5,2.1,0.7c1.2,0.3,2.5,0.6,3.7,0.7c1,0.1,2,0.1,3.1,0
		c1.1-0.1,2.2-0.3,3.3-0.7c0.6-0.2,1-0.5,1.3-1.1c0.3-0.5,0.5-1,0.6-1.6c0.2-1.3,0.3-2.6,0.3-3.9c0.1-1.7,0.1-3.4,0-5.2
		c-0.1-1.3-0.2-2.7-0.3-4c-0.1-1.2-0.3-2.4-0.5-3.7c-0.2-1.5-0.6-3-0.9-4.5c-0.1-0.5-0.3-0.9-0.4-1.3c-0.2-0.1-0.3-0.2-0.6-0.3
		c-0.3-0.1-0.6-0.3-0.9-0.4c-0.3-0.1-0.7-0.2-1-0.3c-0.6-0.2-1.3-0.4-1.9-0.5c-0.7-0.1-1.4-0.2-2.1-0.2c-0.6,0-1.2,0-1.8,0.1
		c-0.8,0.1-1.6,0.2-2.4,0.4c-0.6,0.1-1.2,0.2-1.7,0.4c-0.7,0.2-1.4,0.4-2,0.7c-0.5,0.2-0.9,0.4-1.4,0.6c-1.1,0.5-2.2,1.1-3.3,1.7
		c-0.7,0.5-1.4,0.9-2.1,1.4c-0.4,0.3-0.8,0.6-1.1,0.9c-0.2,0.2-0.4,0.3-0.6,0.5c-0.2,0.2-0.4,0.4-0.7,0.6c-0.3,0.3-0.6,0.5-0.9,0.8
		C8.1,55.6,7.7,56,7.3,56.5z"/>
	<path class="st3" d="M35,48.6c0,0.3,0.1,0.6,0.2,0.8c0.2,0.6,0.3,1.3,0.4,1.9c0.2,0.7,0.3,1.3,0.4,2c0.2,1,0.4,2,0.5,3
		c0.1,0.9,0.3,1.8,0.3,2.7c0.1,1,0.2,1.9,0.2,2.9c0,0.8,0.1,1.6,0.1,2.4c0,1.1,0,2.3-0.1,3.4c0,0.9-0.1,1.8-0.1,2.8
		c-0.1,0.8-0.2,1.7-0.5,2.5c-0.2,0.5-0.4,1-0.8,1.4c-0.2,0.2-0.4,0.4-0.6,0.6c-0.1,0-0.1,0.1-0.1,0.2c0,0.1,0.1,0,0.2,0.1
		c0.3,0.1,0.6,0,0.9-0.1c0.7-0.3,1.5-0.6,2.1-1c0.6-0.3,1.1-0.7,1.6-1.1c0.4-0.3,0.8-0.6,1.1-0.9c0.4-0.4,0.9-0.8,1.3-1.3
		c0.4-0.6,1-1.1,1.4-1.7c0.3-0.4,0.6-0.9,0.8-1.3c0.2-0.3,0.4-0.7,0.6-1.1c0.2-0.4,0.4-0.7,0.5-1.1c0.1-0.3,0.2-0.6,0.4-0.9
		c0.1-0.3,0.3-0.7,0.4-1c0.2-0.5,0.3-1,0.4-1.5c0.1-0.5,0.2-1.1,0.3-1.6c0.1-0.6,0.2-1.3,0.2-1.9c0-0.7,0-1.4-0.1-2.2
		c-0.1-0.7-0.1-1.3-0.2-2c0,0,0-0.1,0-0.1c-0.1-0.1-0.2-0.1-0.3-0.2c-0.1-0.2-0.2-0.3-0.4-0.5c-0.2-0.2-0.5-0.5-0.7-0.7
		c-0.2-0.2-0.5-0.5-0.7-0.7c-0.4-0.4-0.9-0.8-1.4-1.1c-0.2-0.1-0.4-0.3-0.7-0.4c-0.2-0.2-0.6-0.3-0.8-0.5c0,0,0,0,0,0
		c-0.3,0-0.5-0.2-0.7-0.3c-0.2-0.1-0.5-0.2-0.7-0.3c-0.4-0.2-0.8-0.3-1.2-0.5c-0.4-0.1-0.9-0.3-1.3-0.4c-0.4-0.1-0.9-0.2-1.3-0.3
		C36.1,48.3,35.5,48.2,35,48.6z"/>
	<path class="st0" d="M7.3,56.5c0.4-0.5,0.8-0.9,1.3-1.4c0.3-0.3,0.6-0.6,0.9-0.8c0.2-0.2,0.5-0.4,0.7-0.6c0.2-0.2,0.4-0.3,0.6-0.5
		c0.4-0.3,0.8-0.6,1.1-0.9c0.7-0.5,1.4-1,2.1-1.4c1.1-0.7,2.2-1.2,3.3-1.7c0.5-0.2,0.9-0.4,1.4-0.6c0.7-0.3,1.3-0.5,2-0.7
		c0.6-0.2,1.2-0.3,1.7-0.4c0.8-0.2,1.6-0.3,2.4-0.4c0.6-0.1,1.2-0.1,1.8-0.1c0.7,0,1.4,0.1,2.1,0.2c0.6,0.1,1.3,0.3,1.9,0.5
		c0.3,0.1,0.7,0.2,1,0.3c0.3,0.1,0.6,0.3,0.9,0.4c0.2,0.1,0.4,0.2,0.6,0.3c0-0.4-0.2-0.7-0.3-1.1c-0.2-0.7-0.4-1.3-0.6-1.9
		c-0.3-0.8-0.7-1.7-1.1-2.4c-0.3-0.5-0.6-0.9-1-1.3c-0.5-0.6-1.2-0.9-2-1c-1.2,0-2.5,0.1-3.6,0.4c-1.3,0.3-2.6,0.8-3.8,1.4
		c-1,0.4-1.9,1-2.8,1.5c-0.5,0.3-1,0.7-1.5,1c-0.6,0.5-1.2,0.9-1.8,1.4c-0.3,0.3-0.7,0.6-1,0.9c-0.5,0.5-1,1-1.5,1.5
		c-0.5,0.5-0.9,1-1.3,1.5c-0.2,0.2-0.4,0.4-0.5,0.6c-0.5,0.7-1,1.3-1.4,2c-0.3,0.5-0.6,0.9-0.9,1.4c-0.3,0.5-0.6,1.1-0.8,1.6
		C7.3,56.4,7.3,56.5,7.3,56.5z"/>
	<path class="st0" d="M35,48.6c0.5-0.4,1-0.3,1.6-0.2c0.4,0.1,0.9,0.1,1.3,0.3c0.4,0.1,0.9,0.3,1.3,0.4c0.4,0.1,0.8,0.3,1.2,0.5
		c0.2,0.1,0.5,0.2,0.7,0.3c0.2,0.1,0.4,0.3,0.7,0.3c0,0,0,0,0,0c0.2,0.2,0.5,0.3,0.8,0.5c0.2,0.2,0.4,0.3,0.7,0.4
		c0.5,0.3,0.9,0.7,1.4,1.1c0.2,0.2,0.5,0.4,0.7,0.7c0.2,0.2,0.5,0.5,0.7,0.7c0.1,0.1,0.3,0.3,0.4,0.5c0.1,0.1,0.2,0.2,0.3,0.2
		c0-0.2-0.1-0.4-0.1-0.7c-0.2-0.9-0.4-1.8-0.7-2.7c-0.3-0.8-0.6-1.6-1-2.3c-0.3-0.5-0.6-1.1-0.9-1.6c-0.2-0.3-0.4-0.6-0.6-0.9
		c-0.2-0.3-0.4-0.5-0.6-0.8c-0.2-0.3-0.5-0.6-0.8-0.8c-0.2-0.2-0.5-0.5-0.7-0.7c-0.6-0.6-1.3-1.1-2-1.6c-0.3-0.2-0.7-0.4-1-0.6
		c-0.3-0.2-0.6-0.3-0.9-0.5c-0.4-0.2-0.8-0.4-1.1-0.5c-0.4-0.2-0.8-0.3-1.2-0.5c-0.3-0.1-0.6-0.2-0.9-0.3c-0.5-0.1-1.1-0.3-1.6-0.4
		c-0.5-0.1-1-0.2-1.5-0.2c-0.3,0-0.5,0.1-0.8,0.2c0,0-0.1,0-0.1,0.1c0,0.1,0.1,0.1,0.1,0.1c0.7,0.3,1.2,0.8,1.7,1.4
		c0.4,0.5,0.8,1.2,1.1,1.8c0.3,0.6,0.6,1.2,0.8,1.9c0.4,1,0.7,2.1,1,3.1C34.9,48.2,34.9,48.4,35,48.6z"/>
	<path class="st3" d="M48.6,54.6c0,0.4,0.1,0.8,0.1,1.1c0,0.4,0,0.4,0.5,0.4c0.6,0,1.3,0,1.9-0.2c0.5-0.1,1-0.2,1.5-0.4
		c0.8-0.3,1.6-0.6,2.4-1.1c0.5-0.3,0.9-0.6,1.2-1c0.3-0.3,0.3-0.6,0.2-1c-0.1-0.4-0.2-0.8-0.5-1.2c-0.1-0.2-0.2-0.4-0.4-0.5
		c-0.2,0.3-0.5,0.5-0.8,0.8c-0.1,0.1-0.2,0.3-0.3,0.4c-0.3,0.2-0.6,0.6-1,0.8c-0.3,0.2-0.6,0.4-0.9,0.6c-0.8,0.5-1.7,0.6-2.6,0.8
		C49.5,54.4,49,54.5,48.6,54.6z"/>
	<path class="st0" d="M48.6,54.6c0.5-0.1,0.9-0.2,1.4-0.3c0.9-0.2,1.8-0.3,2.6-0.8c0.3-0.2,0.6-0.4,0.9-0.6c0.3-0.3,0.6-0.6,1-0.8
		c0.1-0.1,0.2-0.3,0.3-0.4c0.2-0.3,0.6-0.5,0.8-0.8c-0.1-0.2-0.3-0.3-0.4-0.5c-0.1-0.1-0.2-0.3-0.4-0.4c-0.1-0.1-0.1-0.1-0.2,0
		c-0.1,0.2-0.3,0.4-0.4,0.6c-0.3,0.5-0.6,1-1,1.5c-0.4,0.4-0.8,0.8-1.3,1.1c-0.7,0.4-1.5,0.6-2.3,0.7c-0.3,0.1-0.6,0.1-1,0.2
		c-0.1,0-0.1,0.1-0.1,0.2C48.6,54.3,48.5,54.5,48.6,54.6z"/>
	<path class="st2" d="M56.6,49.3c0-0.1-0.1-0.2-0.2-0.3C56.4,49.2,56.4,49.3,56.6,49.3z"/>
	<path class="st2" d="M56.8,49.6c0-0.1,0-0.2-0.1-0.2C56.7,49.5,56.7,49.5,56.8,49.6z"/>
	<path class="st2" d="M56.9,49.8c0-0.1,0-0.1-0.1-0.2C56.8,49.7,56.9,49.7,56.9,49.8z"/>
</g>
<g>
	<path class="st1" d="M125.5,16.8c-0.9,0.8-1.9,0.9-3,0.8c-1.7-0.2-3.4-0.5-5.1-0.4c-1.3,0-2.7,0.2-3.8,0.9
		c-1.5,0.9-2.6,2.1-3.9,3.3c-0.2,0.2-0.2,0.3,0,0.5c0.5,0.6,0.9,1.2,1.3,1.8c1.2,1.7,2.3,3.5,3.3,5.4c0.8,1.5,1.5,3.1,2.1,4.7
		c0.4,1.3,0.9,2.5,1.2,3.8c0.2,1,0.5,1.9,0.7,2.9c0.2,1.6,0.5,3.2,0.6,4.8c0.2,2.4,0.1,4.8-0.1,7.2c-0.1,0.6-0.1,1.3-0.2,2
		c-0.2,1-0.4,2-0.6,3c-0.2,0.8-0.4,1.5-0.6,2.3c-0.3,1-0.6,2-0.9,3c-0.2,0.3-0.3,0.6-0.4,1c-0.8,1.9-1.6,3.9-2.6,5.7
		c-0.6,1.1-1.2,2.2-2.3,3c-1.5,1.2-3.3,1.6-5.2,1.6c-0.3,0-0.5,0-0.7,0.3c-1.7,2.3-3.7,4.4-6,6.1c-3.3,2.5-6.9,4.6-10.7,6.3
		c-2.8,1.2-5.7,2.3-8.6,3.1c-2,0.6-4,1-6,1.4c-1.6,0.3-3.2,0.5-4.9,0.7c-3.1,0.4-6.3,0.5-9.4,0.5c-2.4,0-4.8-0.1-7.2-0.4
		c-0.9-0.1-1.7-0.2-2.6-0.3c-1.2-0.2-2.3-0.5-3.5-0.8c-1.3-0.3-2.5-0.8-3.7-1.3c-1.2-0.5-2.3-1.2-3.5-1.8c-0.1-0.1-0.3-0.2-0.4-0.3
		c-1.9-1.4-3.7-3-4.8-5.2c-1-2-1.8-4.1-2.5-6.3c-0.6-2-1-4.1-1.3-6.2c-0.3-1.8-0.4-3.7-0.5-5.5c-0.1-3.7,0.1-7.4,0.6-11.1
		c0.2-1.9,0.5-3.7,0.8-5.6c0.3-1.8,0.7-3.5,1.1-5.3c0.4-1.5,0.8-2.9,1.3-4.4c0.8-2.3,1.7-4.6,2.8-6.8c1.3-2.7,2.8-5.2,4.6-7.5
		c1.9-2.4,4-4.6,6.3-6.5c0.2-0.2,0.3-0.3,0.3-0.6c-0.1-1.4,0.1-2.7,0.6-3.9c0.5-1.2,1.1-2.1,2.1-2.8c1.1-0.8,2.3-1.5,3.5-2.1
		c1.4-0.7,2.8-1.4,4.3-1.9c1.3-0.4,2.6-0.9,3.9-1.2c0.8-0.2,1.5-0.4,2.3-0.5c0.9-0.2,1.8-0.3,2.7-0.4c1.8-0.3,3.6-0.4,5.4-0.4
		c1.8,0,3.5,0.1,5.3,0.3c1.2,0.1,2.5,0.4,3.7,0.6c0.8,0.1,1.7,0.4,2.5,0.6c0.7,0.2,1.4,0.3,2,0.5c1.7,0.6,3.4,1.2,5,1.9
		c1.8,0.8,3.5,1.6,5.1,2.6c1.4,0.8,2.8,1.7,4.1,2.8c0.3,0.2,0.4,0.1,0.6-0.1c0.2-0.2,0.3-0.5,0.5-0.7c1.2-1.5,2.6-2.8,4-4
		c2.2-1.8,4.5-3.2,7.1-4.4c0.5-0.2,1.1-0.4,1.7-0.5c1.1-0.2,2.3-0.5,3.5-0.5c1.1,0,2.3,0.1,3.3,0.5c0.3,0.1,0.3,0.1,0.7,0.3
		c1,0.8,1.9,1.8,2.5,2.9C124.8,7.1,125.9,16.4,125.5,16.8z M121.8,10.6c0-0.5-0.3-0.9-0.4-1.4c-0.3-0.9-0.8-1.7-1.4-2.4
		c-0.5-0.6-1.1-0.9-2-0.9c-1.2,0.1-2.3,0.4-3.4,0.8c-1.8,0.7-3.4,1.6-5,2.7c-0.9,0.6-1.7,1.4-2.6,2.1c-1.1,0.9-2,2-2.9,3.1
		c-0.6,0.7-0.5,0.8,0.1,1.4c0.6,0.6,1.1,1.2,1.9,1.7c0.1,0.4,0.5,0.5,0.6,0.7c0.1,0.2,0.2,0.2,0.4,0c0.5-0.5,1-1,1.6-1.5
		c1.3-1.2,2.6-2.3,4.3-3c1.2-0.4,2.4-0.7,3.6-0.8c1.3-0.1,2.6-0.1,3.9,0.2c0.5,0.1,1,0.1,1.4,0.1c0.2,0,0.3-0.1,0.3-0.3
		c0-0.4,0-0.8-0.1-1.2C122.1,11.6,122.2,11,121.8,10.6z M98.5,49.4c0.2,0.5,0.6,0.8,0.9,1.2c1.5,1.9,2.9,3.9,4.2,5.9
		c0.8,1.3,1.5,2.6,2.2,3.9c0.6,1.4,1.2,2.8,1.6,4.3c0.4,1.6,0.5,3.2,0.2,4.8c0,0.1-0.1,0.2,0,0.3c0.1,0.1,0.2,0,0.3-0.1
		c0.6-0.2,1.1-0.5,1.5-1c0.6-0.9,1.1-1.9,1.5-2.9c0.5-1.1,1-2.2,1.5-3.4c0.3-0.7,0.5-1.3,0.7-2c0.3-0.9,0.5-1.8,0.8-2.7
		c0.2-0.9,0.4-1.8,0.6-2.7c0.2-0.7,0.2-1.5,0.3-2.2c0.1-0.9,0.3-1.8,0.3-2.6c0-1.9,0.1-3.8-0.1-5.7c-0.1-0.7-0.2-1.5-0.3-2.2
		c-0.1-0.8-0.3-1.6-0.4-2.4c-0.2-0.7-0.3-1.4-0.5-2.1c-0.2-0.8-0.6-1.5-0.8-2.3c-0.4-1.3-0.9-2.5-1.5-3.7c-0.8-1.7-1.7-3.3-2.7-4.8
		c-1.1-1.7-2.3-3.3-3.7-4.8c-0.3-0.4-0.5-0.9-1-1.1c-0.1-0.1-0.1-0.2-0.2-0.3c-1-1.1-2.1-2.1-3.2-3.1c-1.2-1.1-2.4-2-3.7-3
		c-1.1-0.8-2.3-1.5-3.6-2.2c-1-0.6-2.1-1.1-3.2-1.6c-1-0.5-2.1-0.9-3.2-1.3c-0.7-0.3-1.5-0.5-2.3-0.7c-0.7-0.2-1.3-0.3-2-0.5
		c-0.9-0.3-1.8-0.4-2.7-0.6c-0.9-0.2-1.8-0.3-2.6-0.4c-1.1-0.1-2.2-0.2-3.4-0.3c-1.6-0.1-3.1,0.1-4.7,0.2c-1.3,0-2.6,0.3-3.9,0.5
		c-1,0.2-2.1,0.5-3.1,0.8c-1.4,0.4-2.8,0.9-4.1,1.4c-1.6,0.7-3.1,1.5-4.6,2.4c-0.6,0.4-1.2,0.7-1.4,1.4c0,0.1-0.3,0.3-0.1,0.4
		c0.1,0.1,0.3,0,0.5,0c0.6-0.2,1.3-0.3,1.9-0.3c1.2-0.1,2.4,0.2,3.5,0.5c1.8,0.5,3.5,1.4,5.1,2.4c1.7,1.1,3.4,2.2,5,3.4
		c2,1.5,4,2.9,6,4.4c1.4,1.1,2.7,2.2,4.1,3.3c1.6,1.4,3.2,2.8,4.8,4.2c1.5,1.3,2.8,2.8,4.2,4.2c1.6,1.5,3.1,3.2,4.6,4.8
		c1,1.1,2,2.2,2.9,3.3c0.9,1.1,1.9,2.1,2.7,3.3C97.7,48.4,98,49,98.5,49.4z M47.8,87.3c0,0.1,0.1,0.1,0.3,0.2
		c1.3,0.2,2.6,0.5,3.9,0.7c1.2,0.2,2.5,0.3,3.7,0.4c1.8,0.1,3.6,0.1,5.4,0.1c0.6,0,1.2-0.1,1.8-0.1c1.5,0.1,2.9-0.1,4.4-0.2
		c1.5-0.1,3.1-0.3,4.6-0.6c1-0.2,2-0.3,3-0.5c1.6-0.3,3.3-0.8,4.9-1.2c1.3-0.4,2.5-0.8,3.8-1.2c2.2-0.8,4.3-1.7,6.3-2.8
		c2.6-1.4,5.1-2.9,7.5-4.8c2.1-1.7,3.9-3.7,5.5-5.9c1-1.4,1.2-3,1-4.7c-0.2-1.2-0.6-2.3-1.1-3.5c-0.8-1.8-1.7-3.5-2.8-5.2
		c-0.8-1.3-1.7-2.5-2.6-3.7c-0.5-0.6-0.9-1.3-1.5-1.9c-0.6-0.8-1.2-1.7-1.9-2.5c-2.1-2.6-4.3-5.1-6.6-7.5c-1.9-2-3.7-3.9-5.7-5.8
		c-2.1-2-4.3-4-6.6-5.9c-2.9-2.4-5.9-4.7-9-6.9c-2.3-1.6-4.6-3.3-7.2-4.6c-1.1-0.6-2.3-1-3.6-1.1c-1.3-0.1-2.5,0.2-3.6,0.9
		c-2,1.4-3.9,3.1-5.6,4.9c-1.5,1.7-2.9,3.5-4.1,5.4c-1.5,2.4-2.7,4.9-3.8,7.5c-0.6,1.5-1.1,3-1.6,4.5c-0.5,1.5-0.9,3.1-1.2,4.6
		c-0.3,1.5-0.6,3-0.9,4.5c-0.3,1.7-0.5,3.3-0.7,5c-0.2,2.2-0.4,4.5-0.3,6.7c0,1.2-0.1,2.4,0.1,3.6c0.2,1.6,0.3,3.2,0.6,4.8
		c0.2,1.2,0.4,2.5,0.7,3.7c0.5,1.9,1.2,3.7,2,5.4c0.9,2.1,2.3,3.6,4.1,4.9c1.4,1,3,1.7,4.6,2.3C46.4,87,47.1,87.3,47.8,87.3z"/>
	<path class="st3" d="M47.8,87.3c-0.7,0-1.4-0.3-2.1-0.5c-1.6-0.6-3.2-1.3-4.6-2.3c-1.8-1.3-3.2-2.8-4.1-4.9c-0.8-1.8-1.5-3.6-2-5.4
		c-0.3-1.2-0.5-2.4-0.7-3.7c-0.3-1.6-0.4-3.2-0.6-4.8c-0.1-1.2,0-2.4-0.1-3.6c-0.1-2.2,0.2-4.5,0.3-6.7c0.1-1.7,0.4-3.4,0.7-5
		c0.3-1.5,0.5-3,0.9-4.5c0.4-1.5,0.8-3.1,1.2-4.6c0.5-1.5,1-3,1.6-4.5c1-2.6,2.3-5.1,3.8-7.5c1.2-1.9,2.5-3.7,4.1-5.4
		c1.7-1.8,3.5-3.5,5.6-4.9c1.1-0.8,2.3-1.1,3.6-0.9c1.3,0.1,2.4,0.6,3.6,1.1c2.6,1.3,4.8,3,7.2,4.6c3.1,2.2,6.1,4.4,9,6.9
		c2.3,1.9,4.4,3.9,6.6,5.9c2,1.9,3.8,3.8,5.7,5.8c2.3,2.4,4.5,5,6.6,7.5c0.7,0.8,1.2,1.6,1.9,2.5c0,0.5-0.1,0.9-0.2,1.4
		c-0.2,0.7-0.4,1.4-0.5,2.1c-0.2,0.7-0.5,1.5-0.8,2.2c-0.5,1.4-1.1,2.7-1.7,4c-0.7,1.4-1.5,2.8-2.5,4c-0.8,1-1.6,2-2.5,3
		c-1.2,1.3-2.5,2.6-3.9,3.7c-1,0.9-2,1.7-3,2.5c-1.3,0.9-2.5,1.9-3.9,2.6c-0.9,0.6-1.9,1.2-2.8,1.7C71.5,80.8,69,82,66.5,83
		c-1.8,0.7-3.5,1.3-5.3,1.8c-1,0.3-2,0.6-3,0.9c-0.5,0.1-1.1,0.3-1.6,0.4c-0.7,0.1-1.3,0.2-1.9,0.4c-0.9,0.2-1.8,0.4-2.6,0.5
		C50.6,87.1,49.2,87.3,47.8,87.3z"/>
	<path class="st3" d="M98.5,49.4c-0.5-0.4-0.8-1-1.2-1.4c-0.9-1.1-1.8-2.2-2.7-3.3c-0.9-1.2-2-2.2-2.9-3.3c-1.5-1.6-3-3.3-4.6-4.8
		c-1.4-1.4-2.8-2.8-4.2-4.2c-1.6-1.4-3.1-2.9-4.8-4.2c-1.4-1.1-2.7-2.3-4.1-3.3c-2-1.5-4-3-6-4.4c-1.6-1.2-3.3-2.3-5-3.4
		c-1.6-1-3.3-1.8-5.1-2.4c-1.2-0.3-2.3-0.6-3.5-0.5c-0.6,0-1.3,0.1-1.9,0.3c-0.2,0.1-0.4,0.1-0.5,0c-0.2-0.1,0.1-0.3,0.1-0.4
		c0.2-0.7,0.8-1,1.4-1.4c1.5-0.9,3-1.7,4.6-2.4c1.3-0.6,2.7-1,4.1-1.4c1-0.3,2.1-0.6,3.1-0.8c1.3-0.2,2.6-0.5,3.9-0.5
		c1.6,0,3.1-0.3,4.7-0.2c1.1,0.1,2.2,0.2,3.4,0.3c0.9,0.1,1.8,0.2,2.6,0.4c0.9,0.2,1.8,0.3,2.7,0.6c0.6,0.2,1.3,0.3,2,0.5
		c0.8,0.2,1.5,0.5,2.3,0.7c1.1,0.4,2.1,0.8,3.2,1.3c1.1,0.5,2.2,1,3.2,1.6c1.2,0.7,2.4,1.4,3.6,2.2c1.3,0.9,2.6,1.9,3.7,3
		c1.1,1,2.2,2,3.2,3.1c0.1,0.1,0.1,0.2,0.2,0.3c0,0.3-0.1,0.5,0.1,0.8c0.2,0.4,0.2,0.8,0.3,1.2c0.1,0.7,0.2,1.4,0.4,2.1
		c0.1,0.7,0.2,1.4,0.3,2.2c0.1,1.3,0.2,2.6,0.1,3.8c0,0.6-0.1,1.1-0.1,1.7c0,0.7-0.3,1.3-0.2,2c0,0,0,0.1,0,0.1
		c-0.3,0.5-0.2,1.1-0.3,1.7c-0.1,0.6-0.2,1.2-0.4,1.7c-0.3,0.9-0.5,1.8-0.8,2.7c-0.3,0.9-0.7,1.9-1,2.8c-0.3,0.9-0.8,1.8-1.3,2.6
		C100.5,48,99.9,49,98.5,49.4z"/>
	<path class="st0" d="M47.8,87.3c1.4,0.1,2.7-0.2,4.1-0.3c0.9-0.1,1.8-0.3,2.6-0.5c0.6-0.1,1.3-0.3,1.9-0.4c0.5-0.1,1.1-0.3,1.6-0.4
		c1-0.2,2-0.6,3-0.9c1.8-0.5,3.6-1.2,5.3-1.8c2.6-1,5-2.2,7.4-3.5c1-0.5,1.9-1.1,2.8-1.7c1.4-0.8,2.6-1.7,3.9-2.6
		c1.1-0.8,2.1-1.6,3-2.5c1.4-1.2,2.6-2.4,3.9-3.7c0.9-0.9,1.7-2,2.5-3c1-1.2,1.8-2.6,2.5-4c0.7-1.3,1.3-2.6,1.7-4
		c0.2-0.7,0.6-1.4,0.8-2.2c0.2-0.7,0.3-1.4,0.5-2.1c0.1-0.5,0.2-0.9,0.2-1.4c0.6,0.6,1,1.2,1.5,1.9c0.9,1.2,1.7,2.4,2.6,3.7
		c1.1,1.7,2,3.3,2.8,5.2c0.5,1.1,0.9,2.2,1.1,3.5c0.2,1.7,0.1,3.3-1,4.7c-1.6,2.2-3.4,4.2-5.5,5.9c-2.3,1.8-4.8,3.4-7.5,4.8
		c-2.1,1.1-4.2,2-6.3,2.8c-1.2,0.5-2.5,0.9-3.8,1.2c-1.6,0.5-3.2,0.9-4.9,1.2c-1,0.2-2,0.4-3,0.5c-1.5,0.3-3.1,0.5-4.6,0.6
		c-1.5,0.1-2.9,0.3-4.4,0.2c-0.6,0-1.2,0.1-1.8,0.1c-1.8,0-3.6,0-5.4-0.1c-1.2-0.1-2.5-0.2-3.7-0.4c-1.3-0.2-2.6-0.5-3.9-0.7
		C47.9,87.4,47.8,87.4,47.8,87.3z"/>
	<path class="st0" d="M98.5,49.4c1.3-0.3,1.9-1.4,2.5-2.5c0.4-0.9,0.9-1.7,1.3-2.6c0.3-0.9,0.7-1.9,1-2.8c0.3-0.9,0.5-1.8,0.8-2.7
		c0.2-0.6,0.2-1.2,0.4-1.7c0.1-0.6,0-1.2,0.3-1.7c0,0,0-0.1,0-0.1c-0.1-0.7,0.2-1.4,0.2-2c0-0.6,0.1-1.2,0.1-1.7
		c0.1-1.3,0-2.6-0.1-3.8c-0.1-0.7-0.1-1.4-0.3-2.2c-0.1-0.7-0.2-1.4-0.4-2.1c-0.1-0.4-0.1-0.8-0.3-1.2c-0.1-0.2,0-0.5-0.1-0.8
		c0.5,0.2,0.7,0.7,1,1.1c1.4,1.5,2.6,3.1,3.7,4.8c1,1.6,1.9,3.1,2.7,4.8c0.6,1.2,1.1,2.4,1.5,3.7c0.2,0.8,0.6,1.5,0.8,2.3
		c0.2,0.7,0.3,1.4,0.5,2.1c0.2,0.8,0.3,1.6,0.4,2.4c0.1,0.7,0.2,1.5,0.3,2.2c0.2,1.9,0.2,3.8,0.1,5.7c0,0.9-0.1,1.7-0.3,2.6
		c-0.1,0.7-0.2,1.5-0.3,2.2c-0.2,0.9-0.4,1.8-0.6,2.7c-0.2,0.9-0.5,1.8-0.8,2.7c-0.2,0.7-0.4,1.3-0.7,2c-0.5,1.1-0.9,2.3-1.5,3.4
		c-0.5,1-0.9,2-1.5,2.9c-0.4,0.5-0.9,0.8-1.5,1c-0.1,0-0.2,0.1-0.3,0.1c-0.1-0.1,0-0.2,0-0.3c0.3-1.6,0.2-3.3-0.2-4.8
		c-0.4-1.5-1-2.9-1.6-4.3c-0.6-1.4-1.4-2.7-2.2-3.9c-1.3-2.1-2.7-4-4.2-5.9C99.1,50.2,98.7,49.9,98.5,49.4z"/>
	<path class="st3" d="M106.1,17.7c-0.7-0.5-1.2-1.1-1.9-1.7c-0.7-0.6-0.7-0.6-0.1-1.4c0.9-1.1,1.8-2.2,2.9-3.1
		c0.9-0.7,1.7-1.5,2.6-2.1c1.6-1.1,3.2-2,5-2.7c1.1-0.4,2.2-0.7,3.4-0.8c0.8-0.1,1.4,0.3,2,0.9c0.6,0.7,1.1,1.5,1.4,2.4
		c0.2,0.5,0.5,0.9,0.4,1.4c-0.9-0.1-1.7,0.2-2.5,0.2c-0.4,0-0.8,0-1.1,0.1c-0.9,0.3-1.8,0.4-2.7,0.6c-0.8,0.2-1.5,0.5-2.3,0.8
		c-1.9,0.7-3.3,2.1-4.9,3.4C107.6,16.3,106.8,17,106.1,17.7z"/>
	<path class="st0" d="M106.1,17.7c0.7-0.7,1.5-1.4,2.3-2c1.5-1.2,2.9-2.7,4.9-3.4c0.8-0.3,1.5-0.6,2.3-0.8c0.9-0.2,1.8-0.3,2.7-0.6
		c0.3-0.1,0.7-0.1,1.1-0.1c0.8,0,1.7-0.3,2.5-0.2c0.3,0.4,0.2,1,0.4,1.4c0.1,0.4,0.1,0.8,0.1,1.2c0,0.2-0.1,0.3-0.3,0.3
		c-0.5,0-1,0-1.4-0.1c-1.3-0.2-2.6-0.2-3.9-0.2c-1.2,0.1-2.4,0.3-3.6,0.8c-1.7,0.6-3,1.8-4.3,3c-0.5,0.5-1.1,1-1.6,1.5
		c-0.2,0.2-0.3,0.2-0.4,0C106.5,18.1,106.2,18.1,106.1,17.7z"/>
</g>
<g>
	<path class="st0" d="M88.8,92.7C88.8,92.6,88.7,92.6,88.8,92.7c-0.4-0.2-0.8-0.4-1.1-0.6c-0.8-0.4-1.5-0.8-2.1-1.4
		c-0.7-0.6-1.2-1.3-1.7-2c-0.2-0.3,0.2,0.1,0.1-0.3c-0.1-0.3-0.5,1.5-0.5,1.9c-0.1,2.4,0-1.3,0-1.3c0.5,0.4,9.3-4.9,9.8-4.5
		c0.5,0.3-1.5-0.7-1-0.5c0.5,0.2-0.6-0.8-0.1-0.6c0.4,0.1-0.3,0.5,0.1,0.6c1,0.3,0,1.9,1.1,2.1c1.4,0.2,0.5,1.6,2,1.6
		c0.7,0,2.6,2.9,3.3,2.9c0.9,0,1.9-0.1,2.8-0.2c1.4-0.2,2.7-0.4,4.1-0.8c1.8-0.5,3.6-1.2,5.2-2c1.2-0.6,2.2-1.4,3.1-2.3
		c0.1-0.1,0.2-0.1,0.3-0.1c0.9,0.1,1.7,0.1,2.5-0.3c0.5-0.3,0.9-0.7,1.2-1.2c0.6-0.8,1.1-1.6,1.6-2.4c0.1-0.1,0.1-0.3,0.2-0.4
		c0,0.3-0.2,0.7-0.2,1c-0.1,0.3-0.2,0.6-0.4,1c-0.2,0.4-0.4,0.9-0.6,1.3c-0.3,0.6-0.6,1.1-0.9,1.7c-0.4,0.6-0.8,1.2-1.2,1.8
		c-0.5,0.7-1.1,1.3-1.8,1.9c-0.6,0.6-1.4,1.2-2.1,1.6c-1.4,0.9-2.9,1.5-4.5,2c-1,0.3-2,0.6-3,0.8c-0.6,0.1-1.2,0.2-1.8,0.3
		c-0.6,0.1-1.2,0.1-1.7,0.2c-0.6,0-1.2,0.1-1.7,0.1c-0.1,0-0.1,0-0.1,0.1C96.1,93.9,92.4,93.3,88.8,92.7z"/>
	<path class="st1" d="M118.4,43.2c0.1,0.2,0.3,0.5,0.4,0.7c0,0,0.2,0.6,0.1,0.9c-0.2,0.5-0.5,0.8-1,1c-0.7,0.3-1.4,0.6-2.1,1
		c-0.5,0.3-1,0.7-1.3,1.3c-0.4,0.7-0.5,1.4-0.8,2.2c0,0.1,0,0.2,0.1,0.2c0.3,0.1,0.6,0.3,0.9,0.4c0.9,0.4,1.7,0.8,2.5,1.3
		c0.7,0.4,1.3,0.9,1.9,1.4c0.5,0.4,0.9,0.8,1.4,1.2c0.3,0.3,0.7,0.6,0.9,1c0.5,0.6,0.9,1.1,1.3,1.7c0.6,0.9,1.2,1.8,1.6,2.8
		c0.1,0.3,0.3,0.5,0.4,0.8c0.2,0.4,0.3,0.9,0.5,1.3c0.1,0.3,0.2,0.7,0.3,1c0.1,0.5,0.2,0.9,0.4,1.4c0,0.2,0,0.3,0.1,0.5
		c0.2,0.9,0.3,1.9,0.3,2.8c0,0.6,0,1.2-0.2,1.7c-0.3,0.8-0.9,1.4-1.7,1.8c-0.1,0.1-0.2,0.1-0.2,0.3c-0.1,1.3-0.4,2.6-0.9,3.8
		c-0.7,1.8-1.6,3.4-2.7,5c-0.8,1.1-1.7,2.2-2.6,3.2c-0.6,0.7-1.3,1.3-2,2c-0.6,0.5-1.1,1-1.7,1.4c-1.1,0.9-2.3,1.7-3.6,2.4
		c-0.9,0.6-1.9,1.1-2.9,1.5c-0.4,0.2-0.7,0.3-1.1,0.5c-0.5,0.2-1,0.4-1.5,0.5c-0.6,0.2-1.2,0.3-1.8,0.4c-0.6,0.1-1.2,0.1-1.8,0.1
		c-0.1,0-0.2,0-0.3,0c-1.1-0.1-2.1-0.3-3.1-0.9c-0.9-0.6-1.7-1.2-2.4-1.9c-0.7-0.6-1.3-1.4-1.9-2.1c-0.5-0.7-1-1.3-1.5-2
		c-0.9-1.4-1.7-2.9-2.4-4.5c-0.3-0.8-0.7-1.6-1-2.4c-0.3-0.8-0.6-1.5-0.8-2.3c-0.2-0.7-0.4-1.3-0.5-2c-0.2-1.1-0.4-2.2-0.5-3.3
		c-0.1-1.3-0.1-2.7,0.1-4c0.2-1.4,0.5-2.7,0.9-4c0-0.1,0-0.2,0-0.3c-0.3-0.5-0.6-1.1-0.7-1.7c-0.1-0.6,0-1.1,0.2-1.6
		c0.2-0.6,0.5-1.1,0.9-1.6c0.4-0.6,0.8-1.2,1.2-1.7c0.4-0.5,0.8-1,1.2-1.4c0.3-0.3,0.5-0.5,0.8-0.7c0.3-0.3,0.6-0.5,1-0.8
		c0.6-0.5,1.3-1,2-1.4c0.7-0.4,1.4-0.8,2.1-1.1c0.5-0.2,1.1-0.4,1.6-0.6c0.4-0.1,0.7-0.2,1.1-0.4c0.3-0.1,0.6-0.2,0.9-0.3
		c0.8-0.1,1.6-0.3,2.4-0.4c0.9-0.1,1.7-0.2,2.6-0.2c0.8,0,1.5,0,2.2,0.1c0.2,0,0.2,0,0.2-0.2c0-0.1,0-0.3,0-0.4
		c0.1-0.9,0.3-1.7,0.6-2.5c0.4-1.2,1-2.3,1.8-3.4c0.2-0.2,0.3-0.4,0.5-0.6c0.4-0.4,1-0.8,1.4-1.1c0.4-0.2,0.8-0.4,1.2-0.5
		c0.1,0,0.2-0.1,0.3-0.1c0.6,0.1,1.2,0.2,1.7,0.5c0.5,0.3,1,0.6,1.4,1c0,0.1,0.1,0.1,0.2,0.1c0,0,0,0,0.1,0.1c0,0.1,0.1,0.1,0.2,0.2
		c0,0,0,0.1,0.1,0.1c0,0.1,0.1,0.2,0.2,0.3c0,0,0,0,0,0.1c0.1,0.1,0.2,0.3,0.2,0.4C118.3,43.1,118.3,43.2,118.4,43.2z M116.1,43.2
		c-0.1-0.2-0.3-0.3-0.5-0.4c-0.3-0.3-0.7-0.5-1.1-0.6c-0.3-0.1-0.7-0.1-1,0.1c-0.4,0.3-0.8,0.7-1.1,1.1c-0.5,0.7-1,1.4-1.3,2.2
		c-0.2,0.5-0.4,0.9-0.5,1.4c-0.2,0.6-0.3,1.2-0.4,1.9c-0.1,0.4,0,0.4,0.4,0.5c0.4,0.1,0.7,0.2,1.1,0.2c0.1,0.1,0.3,0.1,0.4,0.1
		c0.1,0.1,0.1,0,0.2-0.1c0.1-0.3,0.2-0.6,0.3-0.9c0.2-0.8,0.5-1.5,1-2.2c0.4-0.4,0.8-0.8,1.2-1.1c0.5-0.3,1-0.6,1.6-0.9
		c0.2-0.1,0.4-0.2,0.6-0.3c0.1-0.1,0.1-0.1,0.1-0.2c-0.1-0.2-0.2-0.3-0.3-0.4C116.4,43.5,116.3,43.3,116.1,43.2z M116,63.8
		c0.2,0.2,0.4,0.2,0.6,0.3c1,0.4,2,0.8,3,1.4c0.6,0.3,1.2,0.6,1.8,1c0.6,0.4,1.1,0.8,1.6,1.3c0.5,0.5,0.9,1.1,1.2,1.8
		c0,0,0,0.1,0.1,0.1c0,0,0.1,0,0.1-0.1c0.2-0.2,0.3-0.5,0.3-0.7c0-0.5,0-1-0.1-1.5c-0.1-0.6-0.1-1.1-0.2-1.7c0-0.3-0.1-0.6-0.2-1
		c-0.1-0.4-0.2-0.8-0.3-1.2c-0.1-0.4-0.3-0.8-0.4-1.2c-0.1-0.3-0.3-0.6-0.4-0.9c-0.1-0.4-0.3-0.7-0.5-1.1c-0.4-0.8-0.8-1.5-1.4-2.2
		c-0.2-0.3-0.4-0.5-0.6-0.8c-0.2-0.3-0.5-0.6-0.7-0.8c-0.2-0.2-0.5-0.5-0.7-0.7c-0.3-0.3-0.6-0.4-0.8-0.7c-0.4-0.4-0.9-0.8-1.4-1.1
		c-0.7-0.5-1.4-0.9-2.2-1.2c-0.8-0.4-1.7-0.8-2.6-1c-0.2-0.1-0.4-0.2-0.6-0.2c0,0-0.1,0-0.1-0.1c-0.6-0.2-1.3-0.3-2-0.5
		c-0.7-0.2-1.4-0.2-2.2-0.3c-0.6-0.1-1.3-0.1-1.9,0c-0.5,0-1.1,0.1-1.6,0.1c-0.5,0.1-1,0.2-1.5,0.2c-0.4,0.1-0.7,0.1-1,0.2
		c-0.3,0.1-0.6,0.2-0.9,0.3c-0.4,0.1-0.8,0.3-1.2,0.4c-0.4,0.1-0.7,0.3-1.1,0.5c-0.5,0.2-0.9,0.4-1.4,0.7c-0.6,0.3-1.2,0.8-1.8,1.2
		c-0.5,0.3-0.9,0.7-1.4,1.1c-0.4,0.3-0.7,0.7-1,1c-0.4,0.5-0.9,1-1.3,1.5c-0.5,0.6-0.9,1.3-1.2,2c-0.1,0.3-0.3,0.5-0.2,0.9
		c0,0.1,0,0.2,0,0.2c0.1,0,0.1-0.1,0.2-0.1c0.2-0.2,0.4-0.4,0.7-0.6c0.5-0.3,1-0.5,1.5-0.6c0.8-0.2,1.7-0.3,2.5-0.3
		c0.9,0,1.8,0.1,2.8,0.2c1.1,0.1,2.3,0.2,3.4,0.3c0.8,0.1,1.6,0.2,2.4,0.4c1,0.1,1.9,0.3,2.9,0.5c0.9,0.2,1.8,0.4,2.6,0.6
		c1,0.2,1.9,0.5,2.9,0.8c0.6,0.2,1.3,0.4,1.9,0.6c0.6,0.2,1.2,0.4,1.8,0.6C115.5,63.6,115.7,63.7,116,63.8z M105.1,90.4
		c0,0,0.1,0,0.1,0c0.6-0.2,1.1-0.4,1.7-0.6c0.5-0.2,1-0.5,1.5-0.7c0.7-0.4,1.4-0.8,2.1-1.2c0.2-0.1,0.4-0.3,0.7-0.4
		c0.6-0.3,1.1-0.7,1.7-1.1c0.6-0.4,1.1-0.9,1.7-1.3c0.4-0.3,0.7-0.6,1-0.9c0.6-0.5,1.1-1.1,1.6-1.6c0.4-0.4,0.8-0.9,1.2-1.4
		c0.6-0.8,1.3-1.7,1.8-2.6c0.7-1.2,1.3-2.3,1.8-3.6c0.4-1.2,0.7-2.4,0.8-3.6c0.1-0.8-0.2-1.5-0.7-2.1c-0.4-0.4-0.8-0.8-1.2-1.1
		c-0.7-0.5-1.5-1-2.3-1.4c-0.6-0.3-1.2-0.6-1.9-0.8c-0.3-0.1-0.7-0.3-1-0.4c-0.4-0.2-0.9-0.4-1.3-0.5c-1.4-0.5-2.9-1-4.3-1.4
		c-1.2-0.3-2.4-0.7-3.6-0.9c-1.3-0.3-2.6-0.6-3.9-0.8c-1.7-0.3-3.4-0.5-5.1-0.6c-1.3-0.1-2.6-0.2-3.9-0.1c-0.6,0-1.1,0.1-1.7,0.4
		c-0.5,0.2-0.9,0.7-1.2,1.2c-0.5,1-0.8,2.1-1,3.2c-0.2,1-0.3,2-0.3,3c0,1.3,0.1,2.5,0.3,3.8c0.1,0.7,0.3,1.4,0.5,2.1
		c0.2,0.7,0.4,1.4,0.6,2.1c0.2,0.7,0.5,1.3,0.7,1.9c0.3,0.7,0.6,1.4,0.9,2.1c0.5,0.9,0.9,1.8,1.4,2.7c0.3,0.5,0.5,1,0.9,1.4
		c0.4,0.6,0.8,1.2,1.3,1.7c0.4,0.4,0.7,0.9,1.1,1.3c0.6,0.6,1.3,1.1,2,1.7c0.8,0.6,1.7,0.9,2.7,1c0.8,0,1.6,0,2.3-0.2
		C104.4,90.6,104.8,90.6,105.1,90.4z"/>
	<path class="st2" d="M118.4,43.2"/>
	<path class="st2" d="M118,42.6C118,42.6,118.1,42.6,118,42.6"/>
	<path class="st3" d="M105.1,90.4c-0.3,0.2-0.6,0.2-0.9,0.3c-0.8,0.2-1.5,0.2-2.3,0.2c-1-0.1-1.9-0.4-2.7-1c-0.7-0.5-1.4-1.1-2-1.7
		c-0.4-0.4-0.8-0.8-1.1-1.3c-0.5-0.5-0.9-1.2-1.3-1.7c-0.3-0.4-0.6-0.9-0.9-1.4c-0.6-0.9-1-1.8-1.4-2.7c-0.3-0.7-0.6-1.4-0.9-2.1
		c-0.3-0.6-0.5-1.3-0.7-1.9c-0.2-0.7-0.4-1.4-0.6-2.1c-0.2-0.7-0.3-1.4-0.5-2.1c-0.2-1.3-0.3-2.5-0.3-3.8c0-1,0.1-2,0.3-3
		c0.2-1.1,0.6-2.2,1-3.2c0.3-0.6,0.7-1,1.2-1.2c0.5-0.2,1.1-0.3,1.7-0.4c1.3-0.1,2.6,0,3.9,0.1c1.7,0.1,3.4,0.3,5.1,0.6
		c1.3,0.2,2.6,0.5,3.9,0.8c1.2,0.3,2.4,0.6,3.6,0.9c1.5,0.4,2.9,0.9,4.3,1.4c0.4,0.2,0.9,0.3,1.3,0.5c0.1,0.2,0.2,0.4,0.2,0.6
		c0.1,0.3,0.2,0.6,0.3,1c0.1,0.3,0.1,0.7,0.2,1c0.1,0.6,0.2,1.3,0.2,2c0,0.7,0,1.4-0.1,2.2c-0.1,0.6-0.1,1.2-0.3,1.7
		c-0.2,0.8-0.4,1.6-0.6,2.4c-0.2,0.6-0.4,1.1-0.6,1.7c-0.3,0.7-0.6,1.3-0.9,1.9c-0.2,0.4-0.5,0.9-0.7,1.3c-0.6,1.1-1.3,2.1-2.1,3.1
		c-0.5,0.7-1.1,1.3-1.7,2c-0.3,0.3-0.6,0.7-1,1c-0.2,0.2-0.3,0.4-0.5,0.5c-0.2,0.2-0.4,0.4-0.7,0.6c-0.3,0.3-0.6,0.6-0.9,0.8
		C106.1,89.7,105.6,90.1,105.1,90.4z"/>
	<path class="st3" d="M116,63.8c-0.3,0-0.5-0.2-0.8-0.3c-0.6-0.2-1.2-0.4-1.8-0.6c-0.6-0.2-1.3-0.4-1.9-0.6c-1-0.3-1.9-0.6-2.9-0.8
		c-0.9-0.2-1.7-0.5-2.6-0.6c-1-0.2-1.9-0.4-2.9-0.5c-0.8-0.1-1.6-0.3-2.4-0.4c-1.1-0.1-2.3-0.2-3.4-0.3c-0.9-0.1-1.8-0.1-2.8-0.2
		c-0.9,0-1.7,0-2.5,0.3c-0.5,0.1-1,0.3-1.5,0.6c-0.2,0.2-0.5,0.3-0.7,0.6c0,0.1-0.1,0.1-0.2,0.1c-0.1,0,0-0.1,0-0.2
		c-0.1-0.3,0.1-0.6,0.2-0.9c0.4-0.7,0.8-1.4,1.2-2c0.4-0.5,0.8-1,1.3-1.5c0.3-0.4,0.7-0.7,1-1c0.5-0.4,0.9-0.8,1.4-1.1
		c0.6-0.4,1.2-0.8,1.8-1.2c0.5-0.2,0.9-0.5,1.4-0.7c0.4-0.2,0.7-0.3,1.1-0.5c0.4-0.1,0.8-0.3,1.2-0.4c0.3-0.1,0.6-0.2,0.9-0.3
		c0.3-0.1,0.7-0.2,1-0.2c0.5-0.1,1-0.2,1.5-0.2c0.5-0.1,1.1-0.1,1.6-0.1c0.6,0,1.3,0,1.9,0c0.7,0.1,1.4,0.1,2.2,0.3
		c0.7,0.1,1.3,0.3,2,0.5c0,0,0.1,0,0.1,0.1c0.1,0.1,0.1,0.2,0.2,0.3c0.2,0.1,0.3,0.3,0.4,0.4c0.2,0.3,0.4,0.5,0.6,0.8
		c0.2,0.2,0.4,0.5,0.6,0.8c0.3,0.5,0.7,1,1,1.5c0.1,0.2,0.2,0.5,0.4,0.7c0.2,0.3,0.2,0.6,0.4,0.8c0,0,0,0,0,0c0,0.3,0.2,0.5,0.3,0.7
		c0.1,0.2,0.2,0.5,0.3,0.8c0.1,0.4,0.2,0.8,0.3,1.3c0.1,0.4,0.2,0.9,0.3,1.3c0.1,0.4,0.1,0.9,0.1,1.3
		C116.4,62.8,116.5,63.3,116,63.8z"/>
	<path class="st0" d="M105.1,90.4c0.6-0.3,1-0.7,1.5-1.1c0.3-0.2,0.6-0.5,0.9-0.8c0.2-0.2,0.4-0.4,0.7-0.6c0.2-0.1,0.4-0.4,0.5-0.5
		c0.3-0.3,0.6-0.7,1-1c0.6-0.6,1.1-1.3,1.7-2c0.8-1,1.4-2,2.1-3.1c0.3-0.4,0.5-0.9,0.7-1.3c0.3-0.6,0.6-1.3,0.9-1.9
		c0.2-0.5,0.4-1.1,0.6-1.7c0.3-0.8,0.5-1.6,0.6-2.4c0.1-0.6,0.2-1.2,0.3-1.7c0.1-0.7,0.1-1.4,0.1-2.2c0-0.7-0.1-1.3-0.2-2
		c-0.1-0.3-0.1-0.7-0.2-1c-0.1-0.3-0.2-0.6-0.3-1c0-0.2-0.1-0.4-0.2-0.6c0.4,0.1,0.7,0.2,1,0.4c0.6,0.3,1.2,0.5,1.9,0.8
		c0.8,0.4,1.6,0.8,2.3,1.4c0.4,0.3,0.9,0.7,1.2,1.1c0.5,0.6,0.8,1.3,0.7,2.1c-0.1,1.2-0.3,2.4-0.8,3.6c-0.5,1.3-1.1,2.5-1.8,3.6
		c-0.6,0.9-1.2,1.8-1.8,2.6c-0.4,0.5-0.8,0.9-1.2,1.4c-0.5,0.6-1.1,1.1-1.6,1.6c-0.3,0.3-0.7,0.6-1,0.9c-0.5,0.5-1.1,0.9-1.7,1.3
		c-0.5,0.4-1.1,0.8-1.7,1.1c-0.2,0.1-0.4,0.3-0.7,0.4c-0.7,0.4-1.4,0.8-2.1,1.2c-0.5,0.2-1,0.5-1.5,0.7c-0.6,0.2-1.1,0.4-1.7,0.6
		C105.1,90.4,105.1,90.5,105.1,90.4z"/>
	<path class="st0" d="M116,63.8c0.4-0.4,0.4-1,0.4-1.6c0-0.4,0-0.9-0.1-1.3c-0.1-0.4-0.2-0.9-0.3-1.3c-0.1-0.4-0.2-0.8-0.3-1.3
		c-0.1-0.3-0.2-0.5-0.3-0.8c-0.1-0.2-0.3-0.5-0.3-0.7c0,0,0,0,0,0c-0.2-0.2-0.2-0.6-0.4-0.8c-0.1-0.2-0.2-0.5-0.4-0.7
		c-0.3-0.5-0.6-1-1-1.5c-0.2-0.3-0.4-0.5-0.6-0.8c-0.2-0.2-0.4-0.5-0.6-0.8c-0.1-0.1-0.2-0.3-0.4-0.4c-0.1-0.1-0.1-0.2-0.2-0.3
		c0.2,0,0.4,0.1,0.6,0.2c0.9,0.3,1.7,0.6,2.6,1c0.8,0.4,1.5,0.8,2.2,1.2c0.5,0.3,1,0.7,1.4,1.1c0.3,0.3,0.6,0.4,0.8,0.7
		c0.2,0.2,0.5,0.5,0.7,0.7c0.3,0.3,0.5,0.6,0.7,0.8c0.2,0.3,0.4,0.5,0.6,0.8c0.5,0.7,1,1.5,1.4,2.2c0.2,0.3,0.4,0.7,0.5,1.1
		c0.1,0.3,0.3,0.6,0.4,0.9c0.1,0.4,0.3,0.8,0.4,1.2c0.1,0.4,0.2,0.8,0.3,1.2c0.1,0.3,0.1,0.6,0.2,1c0.1,0.5,0.2,1.1,0.2,1.7
		c0,0.5,0.1,1,0.1,1.5c0,0.3-0.2,0.5-0.3,0.7c0,0,0,0.1-0.1,0.1c-0.1,0,0-0.1-0.1-0.1c-0.3-0.7-0.7-1.3-1.2-1.8
		c-0.5-0.5-1.1-0.9-1.6-1.3c-0.6-0.4-1.2-0.7-1.8-1c-1-0.5-2-1-3-1.4C116.4,64,116.2,63.9,116,63.8z"/>
	<path class="st3" d="M111.6,49.6c-0.4,0-0.7-0.2-1.1-0.2c-0.4-0.1-0.4-0.1-0.4-0.5c0.1-0.6,0.2-1.3,0.4-1.9c0.2-0.5,0.3-1,0.5-1.4
		c0.4-0.8,0.8-1.5,1.3-2.2c0.3-0.4,0.7-0.8,1.1-1.1c0.3-0.2,0.6-0.2,1-0.1c0.4,0.1,0.8,0.3,1.1,0.6c0.2,0.1,0.4,0.2,0.5,0.4
		c-0.4,0.1-0.6,0.5-0.9,0.7c-0.1,0.1-0.3,0.2-0.4,0.3c-0.3,0.3-0.6,0.6-0.9,0.9c-0.3,0.3-0.5,0.6-0.7,0.8c-0.6,0.7-0.8,1.6-1.1,2.5
		C111.8,48.7,111.7,49.2,111.6,49.6z"/>
	<path class="st0" d="M111.6,49.6c0.1-0.5,0.3-0.9,0.4-1.3c0.3-0.8,0.5-1.7,1.1-2.5c0.2-0.3,0.5-0.6,0.7-0.8
		c0.3-0.3,0.6-0.5,0.9-0.9c0.1-0.1,0.3-0.2,0.4-0.3c0.3-0.2,0.6-0.5,0.9-0.7c0.2,0.1,0.3,0.3,0.5,0.5c0.1,0.1,0.2,0.3,0.3,0.4
		c0.1,0.1,0,0.1-0.1,0.2c-0.2,0.1-0.4,0.2-0.6,0.3c-0.6,0.2-1.1,0.5-1.6,0.9c-0.5,0.3-0.9,0.7-1.2,1.1c-0.5,0.6-0.8,1.4-1,2.2
		c-0.1,0.3-0.2,0.6-0.3,0.9c0,0.1-0.1,0.1-0.2,0.1C111.9,49.7,111.7,49.7,111.6,49.6z"/>
	<path class="st2" d="M117.7,42.3"/>
	<path class="st2" d="M118,42.6"/>
	<path class="st2" d="M117.7,42.2"/>
	<path class="st2" d="M117.3,41.9"/>
</g>
<g>
	<path class="st1" d="M44.8,86.8c0.2,0.2,0.5,0.3,0.7,0.5c0.1-0.1,0.1,0,0.2,0c0.2,0,0.4,0.2,0.7,0.1c0.5-0.1,0.8-0.5,1.1-1
		c0.4-0.7,0.7-1.4,1.1-2c0.4-0.5,0.8-0.9,1.3-1.2c0.7-0.3,1.5-0.5,2.2-0.6c0.1,0,0.2,0,0.2,0.1c0.1,0.3,0.2,0.6,0.3,1
		c0.3,0.9,0.7,1.8,1.2,2.6c0.4,0.7,0.8,1.3,1.3,2c0.4,0.5,0.7,1,1.1,1.4c0.3,0.3,0.6,0.7,0.9,1c0.5,0.5,1.1,1,1.7,1.4
		c0.9,0.7,1.8,1.3,2.7,1.8c0.3,0.1,0.5,0.3,0.8,0.4c0.4,0.2,0.9,0.4,1.3,0.6c0.3,0.1,0.7,0.3,1,0.4c0.5,0.1,0.9,0.3,1.3,0.4
		c0.2,0,0.3,0.1,0.5,0.1c0.9,0.2,1.9,0.4,2.8,0.5c0.6,0.1,1.2,0.1,1.7-0.1c0.8-0.3,1.5-0.8,1.9-1.6c0.1-0.1,0.1-0.2,0.3-0.2
		c1.3-0.1,2.6-0.3,3.8-0.7c1.8-0.6,3.5-1.4,5.1-2.4c1.2-0.7,2.3-1.6,3.4-2.5c0.7-0.6,1.4-1.2,2.1-1.9c0.5-0.5,1-1.1,1.5-1.7
		c0.9-1.1,1.8-2.2,2.6-3.4c0.6-0.9,1.2-1.8,1.7-2.8c0.2-0.3,0.4-0.7,0.5-1.1c0.2-0.5,0.4-1,0.6-1.5c0.2-0.6,0.4-1.1,0.5-1.7
		c0.1-0.6,0.1-1.2,0.2-1.8c0-0.1,0-0.2,0-0.3c-0.1-1.1-0.2-2.2-0.8-3.1c-0.5-0.9-1.1-1.7-1.7-2.5c-0.6-0.7-1.3-1.4-2-2.1
		c-0.6-0.6-1.3-1.1-2-1.6c-1.4-1-2.8-1.9-4.4-2.6c-0.8-0.4-1.5-0.8-2.3-1.1c-0.8-0.3-1.5-0.6-2.3-0.9c-0.7-0.2-1.3-0.4-2-0.6
		c-1.1-0.3-2.2-0.5-3.3-0.7c-1.3-0.2-2.7-0.2-4-0.2c-1.4,0.1-2.7,0.3-4.1,0.7c-0.1,0-0.2,0-0.3,0c-0.5-0.4-1-0.6-1.6-0.8
		c-0.6-0.1-1.1-0.1-1.6,0.1c-0.6,0.2-1.1,0.5-1.7,0.8c-0.6,0.3-1.2,0.7-1.8,1.2c-0.5,0.4-1,0.7-1.5,1.2c-0.3,0.2-0.5,0.5-0.8,0.7
		c-0.3,0.3-0.6,0.6-0.8,0.9c-0.6,0.6-1.1,1.3-1.5,2c-0.4,0.7-0.9,1.3-1.2,2.1c-0.3,0.5-0.5,1-0.7,1.5c-0.2,0.4-0.3,0.7-0.4,1.1
		c-0.1,0.3-0.2,0.6-0.3,0.9c-0.2,0.8-0.4,1.6-0.6,2.4c-0.2,0.9-0.3,1.7-0.3,2.6c0,0.7-0.1,1.5,0,2.3c0,0.2-0.1,0.2-0.2,0.2
		c-0.1,0-0.3,0-0.4,0c-0.9,0.1-1.7,0.3-2.6,0.5c-1.2,0.4-2.4,0.9-3.5,1.6c-0.2,0.1-0.5,0.3-0.6,0.5c-0.6,0.9-1.2,1.7-1.7,2.6
		c-0.1,0.1-0.1,0.2-0.1,0.3c0,0.6,0.2,1.2,0.4,1.7c0.3,0.5,0.5,1,0.9,1.4c0.1,0,0.1,0.1,0.1,0.2c0,0,0,0,0.1,0.1
		c0.1,0,0.1,0.1,0.2,0.2c0,0,0.1,0.1,0.1,0.1c0.1,0,0.2,0.1,0.2,0.2c0,0,0,0,0.1,0c0.1,0.1,0.3,0.2,0.4,0.3
		C44.7,86.7,44.8,86.7,44.8,86.8z M44.9,84.5c-0.2-0.1-0.3-0.3-0.4-0.5c-0.3-0.3-0.4-0.7-0.5-1.1c-0.1-0.3-0.1-0.7,0.2-1
		c0.3-0.4,0.7-0.8,1.2-1.1c0.7-0.5,1.5-0.9,2.3-1.2c0.5-0.2,1-0.3,1.4-0.5c0.6-0.2,1.2-0.3,1.9-0.3c0.4,0,0.4,0,0.5,0.4
		c0,0.4,0.2,0.7,0.2,1.1c0.1,0.1,0.1,0.3,0.1,0.4c0.1,0.1,0,0.1-0.1,0.2c-0.3,0.1-0.6,0.1-1,0.2c-0.8,0.2-1.5,0.4-2.2,0.9
		c-0.5,0.3-0.9,0.7-1.2,1.2c-0.4,0.5-0.7,1-0.9,1.5c-0.1,0.2-0.2,0.4-0.3,0.6c-0.1,0.1-0.1,0.1-0.2,0c-0.2-0.1-0.3-0.2-0.4-0.3
		C45.2,84.8,45,84.7,44.9,84.5z M65.5,85.5c0.1,0.2,0.2,0.4,0.2,0.7c0.3,1,0.7,2.1,1.2,3.1c0.3,0.6,0.6,1.2,0.9,1.8
		c0.4,0.6,0.8,1.2,1.2,1.7c0.5,0.5,1.1,1,1.8,1.3c0,0,0.1,0,0.1,0.1c0,0.1-0.1,0.1-0.1,0.1c-0.2,0.2-0.5,0.3-0.8,0.3
		c-0.5,0-1-0.1-1.5-0.2c-0.5-0.1-1.1-0.2-1.6-0.3c-0.3-0.1-0.6-0.1-0.9-0.2c-0.4-0.1-0.8-0.2-1.2-0.4c-0.4-0.1-0.8-0.3-1.2-0.5
		c-0.3-0.1-0.6-0.3-0.9-0.4c-0.4-0.2-0.7-0.3-1.1-0.6c-0.7-0.5-1.5-0.9-2.1-1.5c-0.3-0.2-0.5-0.4-0.8-0.7c-0.3-0.2-0.5-0.5-0.8-0.8
		c-0.2-0.2-0.4-0.5-0.7-0.7c-0.2-0.3-0.4-0.6-0.7-0.9c-0.4-0.5-0.7-1-1-1.5c-0.4-0.7-0.8-1.5-1.1-2.2c-0.4-0.9-0.7-1.7-0.9-2.6
		c-0.1-0.2-0.2-0.4-0.2-0.7c0,0,0-0.1,0-0.1c-0.2-0.7-0.2-1.3-0.3-2c-0.1-0.7-0.2-1.4-0.2-2.2c0-0.6,0-1.3,0.1-1.9
		c0-0.5,0.1-1.1,0.2-1.6c0.1-0.5,0.2-1,0.3-1.5c0.1-0.3,0.2-0.7,0.3-1c0.1-0.3,0.2-0.6,0.3-0.9c0.1-0.4,0.3-0.8,0.5-1.2
		c0.1-0.4,0.3-0.7,0.5-1.1c0.2-0.5,0.5-0.9,0.7-1.3c0.4-0.6,0.8-1.1,1.3-1.7c0.4-0.5,0.8-0.9,1.2-1.4c0.3-0.4,0.7-0.7,1.1-1
		c0.5-0.4,1-0.8,1.6-1.2c0.7-0.4,1.4-0.8,2.1-1.1c0.3-0.1,0.6-0.3,0.9-0.2c0.1,0,0.2,0,0.2,0.1c0,0.1-0.1,0.1-0.1,0.2
		c-0.2,0.2-0.4,0.4-0.6,0.6c-0.3,0.4-0.5,0.9-0.7,1.5c-0.3,0.8-0.4,1.7-0.4,2.5c0,0.9,0,1.8,0,2.8c0,1.1,0.1,2.3,0.1,3.4
		c0,0.8,0.1,1.6,0.2,2.4c0.1,1,0.2,1.9,0.4,2.9c0.1,0.9,0.3,1.8,0.5,2.7c0.2,1,0.4,2,0.7,2.9c0.2,0.7,0.3,1.3,0.5,2
		c0.2,0.6,0.3,1.2,0.5,1.9C65.3,85,65.5,85.2,65.5,85.5z M92.7,76c0,0,0,0.1,0,0.1c-0.2,0.6-0.5,1.1-0.7,1.7c-0.2,0.5-0.5,1-0.8,1.5
		c-0.4,0.7-0.9,1.4-1.3,2.1c-0.1,0.2-0.3,0.4-0.5,0.7c-0.4,0.6-0.8,1.1-1.2,1.6c-0.4,0.5-0.9,1.1-1.4,1.6c-0.3,0.3-0.6,0.7-1,1
		c-0.5,0.5-1.1,1-1.7,1.5c-0.5,0.4-0.9,0.8-1.4,1.1c-0.9,0.6-1.7,1.2-2.7,1.7c-1.2,0.6-2.4,1.2-3.7,1.6c-1.2,0.4-2.4,0.5-3.6,0.6
		c-0.8,0-1.5-0.3-2-0.8c-0.4-0.4-0.7-0.8-1-1.3c-0.5-0.7-0.9-1.5-1.2-2.4c-0.3-0.6-0.5-1.3-0.7-1.9c-0.1-0.3-0.3-0.7-0.3-1
		c-0.2-0.4-0.3-0.9-0.5-1.3c-0.4-1.5-0.8-2.9-1.2-4.4c-0.3-1.2-0.5-2.4-0.7-3.6c-0.2-1.3-0.4-2.6-0.6-4c-0.2-1.7-0.3-3.4-0.3-5.1
		c0-1.3-0.1-2.6,0.1-3.9c0.1-0.6,0.2-1.1,0.5-1.6c0.3-0.5,0.7-0.9,1.3-1.1c1.1-0.4,2.2-0.7,3.3-0.8c1-0.2,2-0.2,3.1-0.2
		c1.3,0,2.5,0.2,3.8,0.5c0.7,0.2,1.4,0.4,2.1,0.6c0.7,0.2,1.4,0.4,2,0.7c0.6,0.2,1.3,0.5,1.9,0.8c0.7,0.3,1.4,0.6,2.1,1
		c0.9,0.5,1.8,1,2.6,1.6c0.4,0.3,0.9,0.6,1.4,0.9c0.6,0.5,1.1,0.9,1.7,1.4c0.4,0.4,0.8,0.8,1.2,1.2c0.6,0.7,1.1,1.4,1.6,2.1
		c0.6,0.9,0.8,1.8,0.8,2.8c0,0.8-0.1,1.6-0.3,2.3C92.9,75.4,92.9,75.7,92.7,76z"/>
	<path class="st2" d="M44.3,86.4C44.3,86.4,44.3,86.4,44.3,86.4c0.2,0.2,0.3,0.3,0.5,0.5c0-0.1-0.1-0.1-0.1-0.2
		C44.6,86.5,44.4,86.4,44.3,86.4z"/>
	<path class="st3" d="M92.7,76c0.2-0.3,0.2-0.6,0.3-0.9c0.2-0.8,0.3-1.5,0.3-2.3c0-1-0.3-1.9-0.8-2.8c-0.5-0.7-1-1.5-1.6-2.1
		c-0.4-0.4-0.8-0.8-1.2-1.2c-0.5-0.5-1.1-1-1.7-1.4c-0.4-0.4-0.9-0.6-1.4-0.9c-0.8-0.6-1.7-1.1-2.6-1.6c-0.7-0.4-1.4-0.7-2.1-1
		c-0.6-0.3-1.3-0.6-1.9-0.8c-0.7-0.3-1.4-0.5-2-0.7c-0.7-0.2-1.4-0.4-2.1-0.6c-1.2-0.3-2.5-0.4-3.8-0.5c-1,0-2,0-3.1,0.2
		c-1.1,0.2-2.2,0.4-3.3,0.8c-0.6,0.2-1,0.6-1.3,1.1c-0.3,0.5-0.4,1.1-0.5,1.6c-0.2,1.3-0.1,2.6-0.1,3.9c0,1.7,0.1,3.4,0.3,5.1
		c0.1,1.3,0.3,2.7,0.6,4c0.2,1.2,0.5,2.4,0.7,3.6c0.3,1.5,0.7,2.9,1.2,4.4c0.1,0.4,0.3,0.9,0.5,1.3c0.2,0.1,0.4,0.2,0.6,0.3
		c0.3,0.1,0.6,0.2,0.9,0.3c0.3,0.1,0.7,0.2,1,0.3c0.6,0.2,1.3,0.3,1.9,0.4c0.7,0.1,1.4,0.1,2.2,0.1c0.6,0,1.2-0.1,1.8-0.2
		c0.8-0.1,1.6-0.3,2.4-0.5c0.6-0.2,1.2-0.3,1.7-0.5c0.7-0.2,1.3-0.5,2-0.8c0.4-0.2,0.9-0.4,1.4-0.6c1.1-0.6,2.2-1.2,3.2-1.9
		c0.7-0.5,1.4-1,2-1.6c0.4-0.3,0.7-0.6,1.1-0.9c0.2-0.2,0.4-0.3,0.6-0.5c0.2-0.2,0.4-0.4,0.6-0.6c0.3-0.3,0.6-0.6,0.9-0.9
		C91.9,77,92.4,76.5,92.7,76z"/>
	<path class="st3" d="M65.5,85.5c0-0.3-0.1-0.6-0.2-0.8c-0.2-0.6-0.3-1.2-0.5-1.9c-0.2-0.6-0.4-1.3-0.5-2c-0.2-1-0.5-1.9-0.7-2.9
		c-0.2-0.9-0.4-1.8-0.5-2.7c-0.1-1-0.3-1.9-0.4-2.9c-0.1-0.8-0.2-1.6-0.2-2.4c-0.1-1.1-0.1-2.3-0.1-3.4c0-0.9,0-1.8,0-2.8
		c0-0.9,0.1-1.7,0.4-2.5c0.2-0.5,0.4-1,0.7-1.5c0.2-0.2,0.4-0.5,0.6-0.6c0.1,0,0.1-0.1,0.1-0.2c0-0.1-0.1,0-0.2-0.1
		c-0.3-0.1-0.6,0.1-0.9,0.2c-0.7,0.3-1.4,0.7-2.1,1.1c-0.6,0.4-1.1,0.8-1.6,1.2c-0.4,0.3-0.8,0.6-1.1,1c-0.4,0.4-0.9,0.9-1.2,1.4
		c-0.4,0.6-0.9,1.1-1.3,1.7c-0.3,0.4-0.5,0.9-0.7,1.3c-0.2,0.4-0.4,0.7-0.5,1.1c-0.1,0.4-0.4,0.8-0.5,1.2c-0.1,0.3-0.2,0.6-0.3,0.9
		c-0.1,0.3-0.2,0.7-0.3,1c-0.1,0.5-0.2,1-0.3,1.5c-0.1,0.5-0.2,1.1-0.2,1.6c0,0.6-0.1,1.3-0.1,1.9c0,0.7,0.1,1.4,0.2,2.2
		c0.1,0.7,0.2,1.3,0.3,2c0,0,0,0.1,0,0.1c0.1,0.1,0.2,0.1,0.3,0.2c0.1,0.2,0.3,0.3,0.4,0.4c0.2,0.2,0.5,0.5,0.7,0.7
		c0.2,0.2,0.5,0.4,0.7,0.6c0.5,0.4,0.9,0.7,1.4,1c0.2,0.1,0.5,0.2,0.7,0.4c0.3,0.2,0.6,0.2,0.8,0.4c0,0,0,0,0,0
		c0.3,0,0.5,0.2,0.7,0.3c0.2,0.1,0.5,0.2,0.7,0.3c0.4,0.1,0.8,0.3,1.2,0.4c0.4,0.1,0.9,0.2,1.3,0.3c0.4,0.1,0.9,0.1,1.3,0.2
		C64.5,85.9,65,85.9,65.5,85.5z"/>
	<path class="st0" d="M92.7,76c-0.3,0.5-0.8,1-1.2,1.5c-0.3,0.3-0.6,0.6-0.9,0.9c-0.2,0.2-0.4,0.4-0.6,0.6c-0.2,0.2-0.4,0.3-0.6,0.5
		c-0.4,0.3-0.7,0.6-1.1,0.9c-0.7,0.6-1.3,1.1-2,1.6c-1,0.7-2.1,1.3-3.2,1.9c-0.4,0.2-0.9,0.4-1.4,0.6c-0.6,0.3-1.3,0.5-2,0.8
		c-0.6,0.2-1.1,0.4-1.7,0.5c-0.8,0.2-1.6,0.4-2.4,0.5c-0.6,0.1-1.2,0.1-1.8,0.2c-0.7,0.1-1.4,0-2.2-0.1c-0.7-0.1-1.3-0.2-1.9-0.4
		c-0.3-0.1-0.7-0.2-1-0.3c-0.3-0.1-0.6-0.2-0.9-0.3c-0.2-0.1-0.4-0.2-0.6-0.3c0.1,0.4,0.2,0.7,0.3,1c0.2,0.6,0.5,1.3,0.7,1.9
		c0.4,0.8,0.7,1.6,1.2,2.4c0.3,0.5,0.6,0.9,1,1.3c0.6,0.5,1.2,0.9,2,0.8c1.2,0,2.4-0.2,3.6-0.6c1.3-0.4,2.5-1,3.7-1.6
		c0.9-0.5,1.8-1.1,2.7-1.7c0.5-0.3,1-0.7,1.4-1.1c0.6-0.5,1.2-1,1.7-1.5c0.3-0.3,0.6-0.7,1-1c0.5-0.5,0.9-1,1.4-1.6
		c0.4-0.5,0.9-1,1.2-1.6c0.1-0.2,0.3-0.4,0.5-0.7c0.4-0.7,0.9-1.3,1.3-2.1c0.3-0.5,0.5-1,0.8-1.5c0.3-0.5,0.5-1.1,0.7-1.7
		C92.7,76.1,92.7,76,92.7,76z"/>
	<path class="st0" d="M65.5,85.5c-0.5,0.4-1,0.4-1.6,0.3c-0.4-0.1-0.9-0.1-1.3-0.2c-0.4-0.1-0.9-0.2-1.3-0.3
		c-0.4-0.1-0.8-0.3-1.2-0.4c-0.2-0.1-0.5-0.2-0.7-0.3c-0.2-0.1-0.4-0.3-0.7-0.3c0,0,0,0,0,0C58.3,84,58,84,57.8,83.8
		c-0.2-0.2-0.5-0.3-0.7-0.4c-0.5-0.3-1-0.7-1.4-1c-0.2-0.2-0.5-0.4-0.7-0.6c-0.2-0.2-0.5-0.5-0.7-0.7c-0.1-0.1-0.3-0.3-0.4-0.4
		c-0.1-0.1-0.2-0.1-0.3-0.2c0,0.2,0.1,0.4,0.2,0.7c0.2,0.9,0.5,1.8,0.9,2.6c0.3,0.8,0.7,1.5,1.1,2.2c0.3,0.5,0.6,1,1,1.5
		c0.2,0.3,0.4,0.6,0.7,0.9c0.2,0.2,0.4,0.5,0.7,0.7c0.3,0.3,0.5,0.5,0.8,0.8c0.3,0.2,0.5,0.4,0.8,0.7c0.7,0.6,1.4,1,2.1,1.5
		c0.3,0.2,0.7,0.4,1.1,0.6c0.3,0.1,0.6,0.3,0.9,0.4c0.4,0.2,0.8,0.3,1.2,0.5c0.4,0.1,0.8,0.3,1.2,0.4c0.3,0.1,0.6,0.2,0.9,0.2
		c0.5,0.1,1.1,0.2,1.6,0.3c0.5,0.1,1,0.2,1.5,0.2c0.3,0,0.5-0.1,0.8-0.3c0,0,0.1,0,0.1-0.1c0-0.1-0.1-0.1-0.1-0.1
		c-0.7-0.3-1.3-0.8-1.8-1.3c-0.5-0.5-0.9-1.1-1.2-1.7c-0.4-0.6-0.7-1.2-0.9-1.8c-0.5-1-0.8-2-1.2-3.1C65.7,85.9,65.6,85.7,65.5,85.5
		z"/>
	<path class="st3" d="M51.6,80.3c0-0.4-0.1-0.8-0.2-1.1c-0.1-0.4-0.1-0.4-0.5-0.4c-0.6,0-1.3,0.1-1.9,0.3c-0.5,0.1-1,0.3-1.4,0.5
		c-0.8,0.3-1.6,0.7-2.3,1.2c-0.4,0.3-0.8,0.7-1.2,1.1c-0.2,0.3-0.3,0.6-0.2,1c0.1,0.4,0.3,0.8,0.5,1.1c0.1,0.2,0.2,0.4,0.4,0.5
		c0.2-0.4,0.5-0.6,0.7-0.9c0.1-0.1,0.2-0.3,0.3-0.4c0.3-0.3,0.6-0.6,0.9-0.9c0.3-0.2,0.6-0.5,0.9-0.7c0.7-0.5,1.7-0.7,2.5-1
		C50.7,80.5,51.2,80.4,51.6,80.3z"/>
	<path class="st0" d="M51.6,80.3c-0.5,0.1-0.9,0.2-1.4,0.3c-0.9,0.3-1.8,0.4-2.5,1c-0.3,0.2-0.6,0.4-0.9,0.7
		c-0.3,0.3-0.6,0.6-0.9,0.9c-0.1,0.1-0.2,0.3-0.3,0.4c-0.2,0.3-0.6,0.5-0.7,0.9c0.1,0.2,0.3,0.3,0.5,0.5c0.1,0.1,0.3,0.2,0.4,0.3
		c0.1,0.1,0.1,0.1,0.2,0c0.1-0.2,0.2-0.4,0.3-0.6c0.2-0.6,0.6-1.1,0.9-1.5c0.3-0.4,0.7-0.8,1.2-1.2c0.7-0.5,1.4-0.7,2.2-0.9
		c0.3-0.1,0.6-0.2,1-0.2c0.1,0,0.1-0.1,0.1-0.2C51.7,80.6,51.7,80.4,51.6,80.3z"/>
	<path class="st2" d="M44,86.1c0,0.1,0.1,0.2,0.2,0.2C44.2,86.2,44.1,86.1,44,86.1z"/>
	<path class="st2" d="M43.7,85.8c0,0.1,0.1,0.2,0.2,0.2C43.9,85.9,43.8,85.8,43.7,85.8z"/>
	<path class="st2" d="M43.6,85.6c0,0.1,0,0.1,0.1,0.2C43.7,85.7,43.6,85.6,43.6,85.6z"/>
</g>
<g>
	<path class="st1" d="M22.7,51.4c0.2,0.1,0.5,0.1,0.7,0.3c0.4,0.4,0.4,0.9,0.4,1.4c-0.1,0.8-0.2,1.5-0.2,2.3c0,0.6,0.1,1.2,0.4,1.7
		c0.4,0.7,1,1.2,1.5,1.7c0.1,0.1,0.1,0.1,0.2,0c0.3-0.2,0.5-0.4,0.8-0.6c0.8-0.6,1.6-1.1,2.4-1.5c0.7-0.4,1.4-0.7,2.1-1
		c0.6-0.2,1.1-0.4,1.7-0.6c0.4-0.1,0.9-0.2,1.3-0.3c0.7-0.1,1.4-0.2,2.2-0.3c1.1-0.1,2.2-0.1,3.3,0c0.3,0,0.6,0,0.9,0.1
		c0.5,0.1,0.9,0.2,1.4,0.2c0.4,0.1,0.7,0.2,1.1,0.3c0.5,0.1,0.9,0.3,1.4,0.4c0.1,0.1,0.3,0.1,0.4,0.2c0.9,0.3,1.8,0.7,2.6,1.1
		c0.5,0.3,1,0.6,1.4,1c0.6,0.7,0.8,1.5,0.8,2.4c0,0.1,0,0.2,0.1,0.3c1.1,0.8,2,1.7,2.8,2.7c1.2,1.5,2.1,3.1,2.9,4.8
		c0.6,1.3,1.1,2.6,1.5,3.9c0.3,0.9,0.5,1.8,0.7,2.7c0.1,0.7,0.3,1.5,0.4,2.2c0.2,1.4,0.3,2.9,0.3,4.3c0,1.1,0,2.2-0.2,3.3
		c0,0.4-0.1,0.8-0.1,1.2c-0.1,0.5-0.2,1.1-0.3,1.6c-0.2,0.6-0.3,1.2-0.6,1.7c-0.2,0.6-0.5,1.1-0.8,1.6c-0.1,0.1-0.1,0.1-0.2,0.2
		c-0.6,0.9-1.4,1.7-2.4,2.2c-0.9,0.5-1.9,0.9-2.8,1.2c-0.9,0.3-1.9,0.5-2.8,0.6c-0.8,0.1-1.7,0.2-2.5,0.2c-1.7,0.1-3.4,0-5.1-0.2
		c-0.8-0.1-1.7-0.2-2.5-0.4c-0.8-0.1-1.6-0.3-2.4-0.5c-0.7-0.2-1.3-0.4-2-0.6c-1.1-0.3-2.1-0.8-3.1-1.2c-1.2-0.6-2.4-1.3-3.4-2.1
		c-1.1-0.8-2.1-1.8-3-2.8c-0.1-0.1-0.1-0.1-0.3-0.1c-0.6,0-1.2,0-1.8-0.3c-0.5-0.2-1-0.5-1.3-1c-0.4-0.5-0.7-1-1-1.6
		c-0.3-0.6-0.6-1.3-0.9-2c-0.2-0.6-0.4-1.2-0.6-1.8c-0.1-0.3-0.2-0.7-0.2-1c-0.1-0.4-0.1-0.8-0.2-1.2c-0.1-0.8-0.2-1.6-0.2-2.5
		c0-0.8,0-1.6,0.1-2.4c0.1-0.6,0.2-1.1,0.3-1.7c0.1-0.4,0.2-0.8,0.2-1.1c0.1-0.3,0.1-0.6,0.2-0.9c0.3-0.8,0.5-1.5,0.8-2.3
		c0.3-0.8,0.7-1.6,1.2-2.3c0.4-0.7,0.8-1.3,1.2-1.9c0.1-0.1,0.1-0.2,0-0.3c-0.1-0.1-0.2-0.1-0.3-0.2c-0.7-0.5-1.3-1.2-1.9-1.8
		c-0.8-1-1.5-2-2-3.2c-0.1-0.2-0.3-0.8-0.4-1c-0.1-0.6-0.2-0.8-0.2-1.3c0-0.5,0.1-1,0.3-1.5c0-0.1,0-0.2,0.1-0.3
		c0.4-0.5,0.8-0.9,1.3-1.2c0.5-0.3,1-0.5,1.6-0.7c0.1,0,1-0.2,1-0.2c0.2,0,0.3,0,0.5,0C21.6,51.4,22.7,51.4,22.7,51.4z M20.6,53.4
		c-0.2,0-0.4,0.1-0.6,0.2c-0.4,0.1-0.8,0.4-1.1,0.7c-0.3,0.2-0.4,0.5-0.4,0.9c0,0.5,0.2,1,0.4,1.5c0.3,0.8,0.8,1.6,1.3,2.3
		c0.3,0.4,0.6,0.8,1,1.2c0.4,0.5,0.9,0.9,1.4,1.3c0.3,0.3,0.4,0.2,0.6-0.1c0.2-0.3,0.6-0.5,0.8-0.9c0.2,0,0.2-0.2,0.3-0.3
		c0.1-0.1,0.1-0.1,0-0.2c-0.2-0.2-0.5-0.5-0.7-0.7c-0.5-0.6-1.1-1.2-1.4-1.9c-0.2-0.5-0.3-1.1-0.4-1.6c0-0.6,0-1.2,0.1-1.8
		c0-0.2,0-0.4,0-0.7c0-0.1,0-0.1-0.2-0.1c-0.2,0-0.4,0-0.5,0.1C21,53.2,20.8,53.2,20.6,53.4z M38.3,63.8c0.2-0.1,0.4-0.3,0.6-0.4
		c0.9-0.7,1.8-1.3,2.7-1.9c0.6-0.4,1.2-0.7,1.8-1c0.6-0.3,1.3-0.6,2-0.7c0.7-0.2,1.5-0.2,2.2-0.1c0,0,0.1,0,0.1,0c0,0,0-0.1,0-0.1
		c-0.1-0.3-0.2-0.5-0.5-0.7c-0.4-0.3-0.9-0.5-1.3-0.7c-0.5-0.2-1-0.4-1.5-0.6c-0.3-0.1-0.6-0.2-0.9-0.3c-0.4-0.1-0.8-0.2-1.2-0.3
		c-0.4-0.1-0.8-0.2-1.2-0.3c-0.3-0.1-0.7-0.1-1-0.1c-0.4-0.1-0.8-0.1-1.2-0.1c-0.9,0-1.7,0-2.6,0.1c-0.3,0-0.7,0.1-1,0.1
		c-0.4,0.1-0.7,0.1-1.1,0.2c-0.3,0.1-0.6,0.2-0.9,0.2c-0.3,0.1-0.7,0.3-1,0.4c-0.6,0.2-1.1,0.4-1.7,0.7c-0.8,0.4-1.5,0.8-2.2,1.3
		c-0.8,0.5-1.5,1.1-2.2,1.7c-0.2,0.2-0.4,0.2-0.5,0.5c0,0-0.1,0.1-0.1,0.1c-0.5,0.5-0.9,1-1.4,1.5c-0.5,0.5-0.9,1.1-1.3,1.7
		c-0.4,0.5-0.7,1.1-1,1.6c-0.3,0.5-0.5,1-0.7,1.5c-0.2,0.5-0.4,1-0.6,1.5c-0.1,0.3-0.2,0.7-0.3,1c-0.1,0.3-0.1,0.6-0.2,0.9
		c-0.1,0.4-0.2,0.8-0.3,1.2c-0.1,0.4-0.1,0.8-0.2,1.2c0,0.5-0.1,1-0.1,1.5c0,0.7,0.1,1.4,0.1,2.1c0,0.6,0.2,1.2,0.3,1.8
		c0.1,0.5,0.2,0.9,0.4,1.4c0.2,0.6,0.4,1.3,0.7,1.9c0.3,0.7,0.7,1.4,1.1,2.1c0.2,0.3,0.3,0.5,0.6,0.6c0.1,0,0.1,0.1,0.2,0
		c0,0,0-0.2,0-0.2c-0.1-0.3-0.1-0.6-0.2-0.9c0-0.5,0.1-1.1,0.2-1.6c0.2-0.8,0.6-1.6,1-2.3c0.5-0.8,1-1.5,1.5-2.3
		c0.7-0.9,1.3-1.8,2-2.8c0.5-0.6,1-1.3,1.5-1.9c0.6-0.8,1.3-1.5,1.9-2.2c0.6-0.7,1.3-1.3,1.9-2c0.7-0.7,1.4-1.4,2.2-2.1
		c0.5-0.5,1-0.9,1.5-1.4c0.5-0.4,1-0.9,1.5-1.3C37.9,64.1,38.1,64,38.3,63.8z M55.8,86.7c0.1,0,0.1-0.1,0.1-0.1
		c0.1-0.6,0.2-1.2,0.3-1.8c0.1-0.6,0.1-1.1,0.2-1.7c0.1-0.8,0-1.6,0-2.4c0-0.3,0-0.5,0-0.8c0-0.7-0.1-1.3-0.1-2
		c-0.1-0.7-0.2-1.4-0.3-2.1c-0.1-0.5-0.2-0.9-0.3-1.4c-0.2-0.7-0.4-1.5-0.6-2.2c-0.2-0.6-0.4-1.1-0.6-1.7c-0.4-1-0.8-1.9-1.3-2.9
		c-0.6-1.2-1.4-2.3-2.2-3.4c-0.8-1-1.7-1.8-2.7-2.5c-0.7-0.5-1.4-0.5-2.2-0.4c-0.5,0.1-1.1,0.3-1.6,0.5c-0.8,0.4-1.6,0.8-2.3,1.3
		c-0.6,0.4-1.1,0.8-1.7,1.2c-0.3,0.2-0.6,0.4-0.9,0.7c-0.4,0.3-0.8,0.6-1.1,0.9c-1.2,1-2.3,2-3.4,3c-0.9,0.9-1.8,1.7-2.6,2.6
		c-0.9,1-1.8,2-2.7,3c-1.1,1.3-2.1,2.7-3.1,4.1c-0.7,1.1-1.5,2.1-2.1,3.3c-0.3,0.5-0.4,1.1-0.5,1.6c-0.1,0.6,0.1,1.1,0.4,1.6
		c0.7,0.9,1.4,1.7,2.3,2.5c0.8,0.7,1.6,1.3,2.5,1.8c1.1,0.7,2.2,1.2,3.4,1.7c0.7,0.3,1.4,0.5,2.1,0.7c0.7,0.2,1.4,0.4,2.1,0.5
		c0.7,0.1,1.4,0.3,2,0.4c0.8,0.1,1.5,0.2,2.3,0.3c1,0.1,2,0.2,3.1,0.1c0.5,0,1.1,0,1.6,0c0.7-0.1,1.5-0.1,2.2-0.3
		c0.6-0.1,1.1-0.2,1.7-0.4c0.8-0.2,1.7-0.6,2.5-0.9c0.9-0.4,1.6-1.1,2.2-1.9c0.4-0.7,0.8-1.4,1-2.1C55.7,87.3,55.8,87,55.8,86.7z"/>
	<path class="st3" d="M55.8,86.7c0,0.3-0.1,0.6-0.2,0.9c-0.2,0.7-0.6,1.5-1,2.1c-0.6,0.8-1.3,1.5-2.2,1.9c-0.8,0.4-1.6,0.7-2.5,0.9
		c-0.5,0.2-1.1,0.2-1.7,0.4c-0.7,0.2-1.5,0.2-2.2,0.3c-0.5,0.1-1.1,0-1.6,0c-1,0-2,0-3.1-0.1c-0.8-0.1-1.5-0.2-2.3-0.3
		c-0.7-0.1-1.4-0.2-2-0.4c-0.7-0.2-1.4-0.3-2.1-0.5c-0.7-0.2-1.4-0.4-2.1-0.7c-1.2-0.5-2.3-1-3.4-1.7c-0.9-0.5-1.7-1.1-2.5-1.8
		c-0.8-0.8-1.6-1.6-2.3-2.5c-0.4-0.5-0.5-1.1-0.4-1.6c0.1-0.6,0.3-1.1,0.5-1.6c0.6-1.2,1.3-2.2,2.1-3.3c1-1.4,2-2.8,3.1-4.1
		c0.9-1,1.7-2,2.7-3c0.8-0.9,1.7-1.8,2.6-2.6c1.1-1.1,2.2-2.1,3.4-3c0.4-0.3,0.7-0.6,1.1-0.9c0.2,0,0.4,0,0.6,0.1
		c0.3,0.1,0.6,0.2,1,0.2c0.3,0.1,0.7,0.2,1,0.3c0.6,0.2,1.2,0.5,1.8,0.8c0.6,0.3,1.3,0.7,1.8,1.1c0.5,0.4,0.9,0.7,1.4,1.1
		c0.6,0.6,1.2,1.1,1.7,1.7c0.4,0.4,0.8,0.9,1.1,1.4c0.4,0.6,0.9,1.1,1.2,1.7c0.3,0.4,0.5,0.8,0.8,1.3c0.6,1.1,1.2,2.2,1.6,3.4
		c0.3,0.8,0.6,1.6,0.9,2.4c0.1,0.5,0.3,0.9,0.4,1.4c0.1,0.2,0.2,0.5,0.2,0.7c0,0.3,0.1,0.6,0.2,0.9c0.1,0.4,0.2,0.8,0.2,1.2
		C55.7,85.4,55.9,86,55.8,86.7z"/>
	<path class="st3" d="M38.3,63.8c-0.2,0.2-0.4,0.4-0.7,0.6c-0.5,0.4-1,0.9-1.5,1.3c-0.5,0.4-1,0.9-1.5,1.4c-0.7,0.7-1.5,1.4-2.2,2.1
		c-0.6,0.7-1.3,1.3-1.9,2c-0.6,0.7-1.3,1.4-1.9,2.2c-0.5,0.6-1,1.2-1.5,1.9c-0.7,0.9-1.3,1.8-2,2.8c-0.5,0.8-1,1.5-1.5,2.3
		c-0.4,0.7-0.8,1.5-1,2.3c-0.2,0.5-0.3,1.1-0.2,1.6c0,0.3,0,0.6,0.2,0.9c0,0.1,0.1,0.2,0,0.2c-0.1,0.1-0.1,0-0.2,0
		c-0.3-0.1-0.5-0.4-0.6-0.6c-0.4-0.7-0.8-1.4-1.1-2.1c-0.3-0.6-0.5-1.2-0.7-1.9c-0.1-0.5-0.3-0.9-0.4-1.4c-0.1-0.6-0.2-1.2-0.3-1.8
		c0-0.7-0.1-1.4-0.1-2.1c0-0.5,0.1-1,0.1-1.5c0-0.4,0.1-0.8,0.2-1.2c0.1-0.4,0.1-0.8,0.3-1.2c0.1-0.3,0.1-0.6,0.2-0.9
		c0.1-0.3,0.2-0.7,0.3-1c0.2-0.5,0.4-1,0.6-1.5c0.2-0.5,0.5-1,0.7-1.5c0.3-0.6,0.6-1.1,1-1.6c0.4-0.6,0.8-1.2,1.3-1.7
		c0.5-0.5,0.9-1,1.4-1.5c0,0,0.1-0.1,0.1-0.1c0.1,0,0.2,0,0.4,0c0.2-0.1,0.4-0.1,0.6-0.1c0.3-0.1,0.7-0.1,1-0.2
		c0.3-0.1,0.7-0.1,1-0.1c0.6-0.1,1.2-0.1,1.8-0.1c0.3,0,0.5,0,0.8,0c0.3,0,0.6,0.1,0.9,0.1c0,0,0,0,0,0c0.2,0.1,0.5,0.1,0.8,0.1
		c0.3,0.1,0.5,0.1,0.8,0.2c0.4,0.1,0.8,0.2,1.2,0.3c0.4,0.1,0.8,0.3,1.3,0.4c0.4,0.1,0.8,0.4,1.2,0.6C37.7,62.9,38.2,63.2,38.3,63.8
		z"/>
	<path class="st0" d="M55.8,86.7c0-0.6-0.1-1.2-0.2-1.9c-0.1-0.4-0.2-0.8-0.2-1.2c-0.1-0.3-0.1-0.6-0.2-0.9c0-0.2-0.1-0.5-0.2-0.7
		c-0.1-0.5-0.3-0.9-0.4-1.4c-0.2-0.8-0.5-1.6-0.9-2.4c-0.5-1.2-1-2.3-1.6-3.4c-0.2-0.4-0.5-0.9-0.8-1.3c-0.4-0.6-0.8-1.2-1.2-1.7
		c-0.4-0.5-0.7-0.9-1.1-1.4c-0.5-0.6-1.1-1.2-1.7-1.7c-0.4-0.4-0.9-0.8-1.4-1.1c-0.6-0.4-1.2-0.8-1.8-1.1c-0.6-0.3-1.2-0.6-1.8-0.8
		c-0.3-0.1-0.7-0.2-1-0.3c-0.3-0.1-0.6-0.1-1-0.2C40.1,65,39.9,65,39.7,65c0.3-0.3,0.6-0.5,0.9-0.7c0.5-0.4,1.1-0.8,1.7-1.2
		c0.7-0.5,1.5-0.9,2.3-1.3c0.5-0.2,1-0.4,1.6-0.5c0.8-0.1,1.5,0,2.2,0.4c1,0.7,1.9,1.5,2.7,2.5c0.9,1,1.6,2.2,2.2,3.4
		c0.5,0.9,0.9,1.9,1.3,2.9c0.2,0.6,0.4,1.1,0.6,1.7c0.2,0.7,0.4,1.5,0.6,2.2c0.1,0.4,0.2,0.9,0.3,1.4c0.1,0.7,0.2,1.4,0.3,2.1
		c0.1,0.7,0.1,1.3,0.1,2c0,0.3,0,0.5,0,0.8c0,0.8,0,1.6,0,2.4c0,0.6-0.1,1.1-0.2,1.7c-0.1,0.6-0.2,1.2-0.3,1.8
		C55.9,86.6,55.9,86.6,55.8,86.7z"/>
	<path class="st0" d="M38.3,63.8c-0.2-0.6-0.7-0.9-1.2-1.1c-0.4-0.2-0.8-0.4-1.2-0.6c-0.4-0.1-0.8-0.3-1.3-0.4
		c-0.4-0.1-0.8-0.2-1.2-0.3c-0.3-0.1-0.5-0.1-0.8-0.2c-0.3-0.1-0.5,0-0.8-0.1c0,0,0,0,0,0c-0.3,0-0.6-0.1-0.9-0.1
		c-0.3,0-0.5,0-0.8,0c-0.6,0-1.2,0-1.8,0.1c-0.3,0-0.7,0.1-1,0.1c-0.3,0.1-0.6,0.1-1,0.2c-0.2,0-0.4,0.1-0.6,0.1
		c-0.1,0.1-0.2,0-0.4,0c0.1-0.2,0.3-0.3,0.5-0.5c0.7-0.6,1.4-1.2,2.2-1.7c0.7-0.5,1.4-0.9,2.2-1.3c0.5-0.3,1.1-0.5,1.7-0.7
		c0.3-0.1,0.7-0.3,1-0.4c0.3-0.1,0.6-0.2,0.9-0.2c0.4-0.1,0.7-0.2,1.1-0.2c0.3-0.1,0.7-0.1,1-0.1c0.9-0.1,1.7-0.1,2.6-0.1
		c0.4,0,0.8,0.1,1.2,0.1c0.3,0.1,0.7,0.1,1,0.1c0.4,0.1,0.8,0.2,1.2,0.3c0.4,0.1,0.8,0.2,1.2,0.3c0.3,0.1,0.6,0.2,0.9,0.3
		c0.5,0.2,1,0.4,1.5,0.6c0.4,0.2,0.9,0.4,1.3,0.7c0.2,0.2,0.4,0.4,0.5,0.7c0,0,0.1,0.1,0,0.1c0,0-0.1,0-0.1,0
		c-0.7-0.1-1.5-0.1-2.2,0.1c-0.7,0.2-1.3,0.5-2,0.7c-0.6,0.3-1.2,0.6-1.8,1c-0.9,0.6-1.8,1.2-2.7,1.9C38.7,63.5,38.6,63.7,38.3,63.8
		z"/>
	<path class="st3" d="M23.9,60.5c-0.2,0.3-0.5,0.6-0.8,0.9c-0.3,0.3-0.3,0.3-0.6,0.1c-0.5-0.4-1-0.8-1.4-1.3c-0.3-0.4-0.7-0.8-1-1.2
		c-0.5-0.7-0.9-1.5-1.3-2.3c-0.2-0.5-0.3-1-0.4-1.5c0-0.4,0.1-0.7,0.4-0.9c0.3-0.3,0.7-0.5,1.1-0.7c0.2-0.1,0.4-0.2,0.6-0.2
		c-0.1,0.4,0.1,0.8,0.1,1.1c0,0.2,0,0.3,0,0.5c0.1,0.4,0.2,0.8,0.3,1.2c0.1,0.4,0.2,0.7,0.4,1c0.3,0.9,1,1.5,1.6,2.2
		C23.2,59.8,23.5,60.2,23.9,60.5z"/>
	<path class="st0" d="M23.9,60.5c-0.3-0.3-0.6-0.7-0.9-1c-0.6-0.7-1.2-1.3-1.6-2.2c-0.1-0.3-0.3-0.7-0.4-1c-0.1-0.4-0.2-0.8-0.3-1.2
		c-0.1-0.2,0-0.3,0-0.5c0-0.4-0.2-0.8-0.1-1.1c0.2-0.2,0.4-0.1,0.7-0.2c0.2,0,0.3-0.1,0.5-0.1c0.1,0,0.2,0,0.2,0.1
		c0,0.2,0,0.4,0,0.7c-0.1,0.6-0.1,1.2-0.1,1.8c0,0.6,0.2,1.1,0.4,1.6c0.3,0.8,0.8,1.4,1.4,1.9c0.2,0.2,0.4,0.5,0.7,0.7
		c0.1,0.1,0.1,0.1,0,0.2C24.1,60.3,24,60.5,23.9,60.5z"/>
</g>
<path class="st1" d="M-11.4,50"/>
<path class="st1" d="M118.9,44.4"/>
</svg>
