<?xml version="1.0" encoding="utf-8"?>
<!-- Generator: Adobe Illustrator 23.1.1, SVG Export Plug-In . SVG Version: 6.00 Build 0)  -->
<svg version="1.1" id="Layer_1" xmlns="http://www.w3.org/2000/svg" xmlns:xlink="http://www.w3.org/1999/xlink" x="0px" y="0px"
     viewBox="0 0 129 104" style="enable-background:new 0 0 129 104;" xml:space="preserve">
<style type="text/css">
    .st0{fill-rule:evenodd;clip-rule:evenodd;fill:#F1F1EE;}
    .st1{fill-rule:evenodd;clip-rule:evenodd;fill:#E6E6E6;}
    .st2{fill:none;stroke:#546676;stroke-width:3;}
    .st3{fill-rule:evenodd;clip-rule:evenodd;fill:#FFFFFF;}
    .st4{fill:none;stroke:#666666;stroke-width:3;}
</style>
<title>Group 33</title>
<desc>Created with Sketch.</desc>
<g id="Page-1">
    <g id="Inbox-empty-state-MVP" transform="translate(-915.000000, -147.000000)">
        <g id="Group-33" transform="translate(917.000000, 149.000000)">
            <path id="Fill-1" class="st0" d="M122,33.5c-0.2-2.6-7.5,6.5-24.5,4.5c-2.8-0.3-3.2-0.3-3.4,0.6c-0.6,2,7.1,5.2,14.2,4.2
                C116.4,41.7,122.2,35.7,122,33.5"/>
            <path id="Fill-3" class="st0" d="M113.9,55.1c-6.1-4.2-12.9,5-22.6,0.5c-2.5-1.2-12.9,2.5-12.3,2.7C83,59.7,83.5,64,92.8,64
                c6.1,0,13-2.8,17.2-5.2C112.9,57.1,114.5,55.6,113.9,55.1"/>
            <path id="Fill-5" class="st0" d="M48.3,8.3c-4.3-3.4,0.3,19.5-9.4,38C36.4,51,35.9,56,36,59.7c0.2,9.7,10.5,16.6,11.9,20.3
                c1.6,4.2-5.2-6.2-4-20c0.7-7.6,4.3-16.8,7.1-24.5c2.5-6.7,2-11.7,1.2-17C51.7,14.2,50.9,10.5,48.3,8.3"/>
            <path id="Fill-7" class="st0" d="M88,74.8c0.2-4.1-13.5,9.6-27.8,13.4c-18.5,4.9-31-4.1-32.1-2.7c-0.7,0.9,5.6,7.4,11.9,11.8
                c9.6,6.7,30.8,0.1,40.3-8.2C86.3,83.8,87.9,76.1,88,74.8"/>
            <path id="Fill-9" class="st0" d="M28.1,17.1c-12.6,5.9-15.9,18.1-15,24.2c0.2,1.2,3.9,0.6,10.7,0.2C27.7,41.3,32.8,15,28.1,17.1"
                />
            <g id="Group-14" transform="translate(33.000000, 90.000000)">
                <path id="Fill-11" class="st1" d="M21.3,9.7l36.5-0.5c0,0,2.4-2.7,0-6.3c-3.3-4.9-14.5-1-14.5-1"/>
                <path id="Stroke-13" class="st2" d="M21.3,9.7l36.5-0.5c0,0,2.4-2.7,0-6.3C54.7-1.7,42.4,1.3,41,3c-0.1,0.1,2-1.1,2-1"/>
            </g>
            <path id="Stroke-15" class="st2" d="M52,28.7c1.8-0.2,3.5-0.3,5-0.4c11.7-0.3,12,1.9,22.5-0.7c11.4-2.8,7.4-11.8,15.3-12.6
                c15.9-1.5,27.1,15.3,27.3,18c0.2,4.6-12.9,13.7-29,5.9"/>
            <path id="Stroke-17" class="st2" d="M62.8,68.1c4.3-8.4,12.1-12.3,17.5-10.5c6.5,2.2,8.7,12.1,7.3,18.7
                c-3,14.3-25.8,26-43.9,21.8c-15.3-3.6-31.3-38.9-19.8-56.9c1.4-2.1,6.8-12.2,6.4-19.2c-0.1-2.1-0.8-3.9-1.3-5"/>
            <path id="Stroke-19" class="st2" d="M52,84c-1.6-1.8-4.4-5.1-6.4-9.9c-9.3-22.6,13.6-41.4,5.7-60.7C47,2.7,41.4,0.4,31.1,0
                c-20-0.7-35,21.6-30.2,33.6c3.3,8.2,6.7,10.1,23.5,8.8"/>
            <g id="Group-24" transform="translate(25.000000, 8.000000)">
                <path id="Fill-21" class="st3" d="M74.8,13.8c0,0-0.4-5.6-1.7-7.5c-2-3.1-3.5-5.8-4.9-5.8c-0.3,0-3.1,4.9-2.7,9.5
                    c0.3,3,1.1,5.8,1.1,5.8"/>
                <path id="Stroke-23" class="st2" d="M74.8,13.8c0,0-0.4-5.6-1.7-7.5c-2-3.1-3.5-5.8-4.9-5.8c-0.3,0-3.1,4.9-2.7,9.5
                    c0.3,3,1.1,5.8,1.1,5.8"/>
            </g>
            <path id="Stroke-25" class="st2" d="M100.8,42c-4.4,3.5-9.3,3.4-8.2,6.5c1.8,5.4,29.2,0.4,32.1,7.6c0.6,1.5,0.1,3.8-1.1,4.6
                c-1.7,1.1-6.2-0.5-8-3.2c-2.6-4-12.3,5.9-18.3,6.3c-2.8,0.2-5.1,0.3-11.4-1.7"/>
            <path id="Stroke-27" class="st2" d="M107.9,18c0.3-5.1-0.7-8.7-2.2-9c-1.4-0.2-3.3,3-4.8,6.5"/>
            <g id="Group-32" transform="translate(15.000000, 27.000000)">
                <path id="Fill-29" class="st3" d="M94.9,1.8c0-0.8-0.6-1.5-1.3-1.5c-0.7,0-1.3,0.7-1.3,1.5"/>
                <path id="Stroke-31" class="st4" d="M94.9,1.8c0-0.8-0.6-1.5-1.3-1.5c-0.7,0-1.3,0.7-1.3,1.5"/>
            </g>
        </g>
    </g>
</g>
</svg>
