<?xml version="1.0" encoding="UTF-8"?>
<svg width="178px" height="102px" viewBox="0 0 178 102" version="1.1" xmlns="http://www.w3.org/2000/svg" xmlns:xlink="http://www.w3.org/1999/xlink">
    <!-- Generator: Sketch 54.1 (76490) - https://sketchapp.com -->
    <title>Group 53</title>
    <desc>Created with Sketch.</desc>
    <g id="Page-1" stroke="none" stroke-width="1" fill="none" fill-rule="evenodd">
        <g id="Inbox-empty-state-MVP" transform="translate(-890.000000, -623.000000)">
            <g id="Group-53" transform="translate(892.000000, 625.000000)">
                <path d="M147.778271,55.135399 C145.416333,48.4907435 145.620169,33.2855503 147.147568,25.8719196 C149.669466,13.6346468 153.452771,18.4228095 153.452771,18.4228095 L157.867694,31.7244612 L173,55.135399 C173,55.135399 149.669466,60.4557512 147.778271,55.135399" id="Fill-1" fill="#F1F1EE"></path>
                <path d="M106.884757,50.7336152 C104.346649,44.9206039 102.442378,29.0665886 101.173785,21.6677927 C99.826996,13.8200743 98,0 98,0 L108.154271,5.81377736 L131,29.5944174 C131,29.5944174 107.666704,52.5247091 106.884757,50.7336152" id="Fill-3" fill="#F1F1EE"></path>
                <path d="M62.374725,57.8695278 C54.5975512,55.6740045 58.6247573,35.1062257 55.4999353,28.2242079 C53.4179286,23.6405446 48,9.16666667 48,9.16666667 L57.9996117,14.9904438 L83,54.1645343 C83,54.1645343 69.8746602,59.987544 62.374725,57.8695278" id="Fill-5" fill="#F1F1EE"></path>
                <path d="M72,35 C83.6128127,14.3177974 93.2906243,0 99.096563,0 C103.612813,0 116.51625,14.3177974 132,29.6972259" id="Stroke-7" stroke="#546676" stroke-width="3"></path>
                <path d="M101,58.3333333 C134.430493,23.5150715 144.077383,17.5 149.806637,17.5 C157.446258,17.5 149.727269,28.6676568 174,55.7489549" id="Stroke-9" stroke="#546676" stroke-width="3"></path>
                <path d="M0,55.8333333 C26.7355903,25.540589 42.7767593,9.16666667 47.2461111,9.16666667 C52.992685,9.16666667 64.9291584,26.3067627 83,53.7362369" id="Stroke-11" stroke="#546676" stroke-width="3"></path>
                <g id="Group-16" transform="translate(29.000000, 52.500000)">
                    <path d="M0.154368,40.5098255 L11.034048,0.530910377 C11.170368,0.0285833333 12.061248,0.0262720126 12.202368,0.527058176 L23.062848,39.058316" id="Fill-13" fill="#FFFFFF"></path>
                    <path d="M0.154368,40.5098255 L11.034048,0.530910377 C11.170368,0.0285833333 12.061248,0.0262720126 12.202368,0.527058176 L23.062848,39.058316" id="Stroke-15" stroke="#546676" stroke-width="3"></path>
                </g>
                <g id="Group-20" transform="translate(65.000000, 54.166667)">
                    <path d="M0.3374,23.912237 L6.73913333,0.192653646 C6.8194,-0.105653646 7.539,-0.0225807292 7.62206667,0.274216146 L13.8175333,23.0505443" id="Fill-17" fill="#FFFFFF"></path>
                    <path d="M0.3374,23.912237 L6.73913333,0.192653646 C6.8194,-0.105653646 7.539,-0.0225807292 7.62206667,0.274216146 L13.8175333,23.0505443" id="Stroke-19" stroke="#546676" stroke-width="3"></path>
                </g>
                <g id="Group-24" transform="translate(107.000000, 60.833333)">
                    <path d="M0.0792,29.90475 L7.61608889,0.78375 C7.7112,0.4185 8.32897778,0.41625 8.42675556,0.7815 L15.9503111,28.84725" id="Fill-21" fill="#FFFFFF"></path>
                    <path d="M0.0792,29.90475 L7.61608889,0.78375 C7.7112,0.4185 8.32897778,0.41625 8.42675556,0.7815 L15.9503111,28.84725" id="Stroke-23" stroke="#546676" stroke-width="3"></path>
                </g>
                <g id="Group-32" transform="translate(71.000000, 78.333333)">
                    <path d="M0.8972,0.440857143 L0.8972,4.47728571" id="Fill-29" fill="#FFFFFF"></path>
                    <path d="M0.8972,0.440857143 L0.8972,4.47728571" id="Stroke-31" stroke="#546676" stroke-width="3"></path>
                </g>
                <g id="Group-36" transform="translate(114.000000, 90.000000)">
                    <path d="M0.8806,0.646666667 L0.8806,6.22814815" id="Fill-33" fill="#FFFFFF"></path>
                    <path d="M0.8806,0.646666667 L0.8806,6.22814815" id="Stroke-35" stroke="#546676" stroke-width="3"></path>
                </g>
                <g id="Group-36" transform="translate(40.000000, 92.500000)">
                    <path d="M0.5,0 L0.5,7.5" id="Fill-33" fill="#FFFFFF"></path>
                    <path d="M0.5,0 L0.5,7.5" id="Stroke-35" stroke="#546676" stroke-width="3"></path>
                </g>
                <g id="Group-40" transform="translate(138.000000, 66.666667)">
                    <path d="M0.6237,15.1684917 L4.2543,0.544825 C4.3002,0.361158333 4.5981,0.360366667 4.6449,0.543241667 L8.2692,14.638075" id="Fill-37" fill="#FFFFFF"></path>
                    <path d="M0.6237,15.1684917 L4.2543,0.544825 C4.3002,0.361158333 4.5981,0.360366667 4.6449,0.543241667 L8.2692,14.638075" id="Stroke-39" stroke="#546676" stroke-width="3"></path>
                </g>
                <g id="Group-44" transform="translate(141.000000, 80.833333)">
                    <path d="M1.1252,0.1115 L1.1252,2.8815" id="Fill-41" fill="#FFFFFF"></path>
                    <path d="M1.1252,0.1115 L1.1252,2.8815" id="Stroke-43" stroke="#546676" stroke-width="3"></path>
                </g>
                <g id="Group-48" transform="translate(86.000000, 50.833333)">
                    <path d="M0.725422222,13.0671111 L4.02053333,0.495259259 C4.06142222,0.337481481 4.33164444,0.336740741 4.37431111,0.494518519 L7.6632,12.6108148" id="Fill-45" fill="#FFFFFF"></path>
                    <path d="M0.725422222,13.0671111 L4.02053333,0.495259259 C4.06142222,0.337481481 4.33164444,0.336740741 4.37431111,0.494518519 L7.6632,12.6108148" id="Stroke-47" stroke="#546676" stroke-width="3"></path>
                </g>
                <g id="Group-52" transform="translate(90.000000, 64.166667)">
                    <path d="M0.8884,0.5135 L0.8884,3.0585" id="Fill-49" fill="#FFFFFF"></path>
                    <path d="M0.8884,0.5135 L0.8884,3.0585" id="Stroke-51" stroke="#546676" stroke-width="3"></path>
                </g>
            </g>
        </g>
    </g>
</svg>